<?xml version="1.0" encoding="UTF-8" standalone="no"?> <!-- Created with Vectornator Pro for iOS (http://vectornator.io/) --><!DOCTYPE svg PUBLIC "-//W3C//DTD SVG 1.1//EN" "http://www.w3.org/Graphics/SVG/1.1/DTD/svg11.dtd">
<svg height="100%" style="fill-rule:evenodd;clip-rule:evenodd;stroke-linecap:round;stroke-linejoin:round;" xmlns:xlink="http://www.w3.org/1999/xlink" xmlns="http://www.w3.org/2000/svg" xml:space="preserve" width="100%" xmlns:vectornator="http://vectornator.io" version="1.1" viewBox="0 0 660 330">
<metadata>
<vectornator:setting key="CMYKEnabledKey" value="0"/>
<vectornator:setting key="Units" value="Points"/>
<vectornator:setting key="GridSpacing" value="36"/>
<vectornator:setting key="RulersVisible" value="1"/>
<vectornator:setting key="DynamicGuides" value="1"/>
</metadata>
<defs/>
<g id="Untitled" vectornator:layerName="Untitled">
<path d="M32.0904-2.65313L660-2.65313L660+332.653L32.0904+332.653L32.0904-2.65313Z" opacity="1" fill="#d9534f"/>
<path d="M615.899+212.112L615.899+212.819L619.753+212.819L619.753+212.112L615.899+212.112ZM558.078+212.112L558.078+212.819L561.928+212.819L561.928+212.112L558.078+212.112ZM569.642+212.112L569.642+212.819L573.497+212.819L573.497+212.112L569.642+212.112ZM581.205+212.112L581.205+212.819L585.059+212.819L585.059+212.112L581.205+212.112ZM592.774+212.112L592.774+212.819L596.628+212.819L596.628+212.112L592.774+212.112ZM604.337+212.112L604.337+212.819L608.191+212.819L608.191+212.112L604.337+212.112ZM477.119+212.112L477.119+212.819L480.973+212.819L480.973+212.112L477.119+212.112ZM419.293+212.112L419.293+212.819L423.148+212.819L423.148+212.112L419.293+212.112ZM430.856+212.112L430.856+212.819L434.71+212.819L434.71+212.112L430.856+212.112ZM442.425+212.112L442.425+212.819L446.279+212.819L446.279+212.112L442.425+212.112ZM453.988+212.112L453.988+212.819L457.842+212.819L457.842+212.112L453.988+212.112ZM465.55+212.112L465.55+212.819L469.404+212.819L469.404+212.112L465.55+212.112ZM349.897+212.112L349.897+212.819L353.751+212.819L353.751+212.112L349.897+212.112ZM361.466+212.112L361.466+212.819L365.32+212.819L365.32+212.112L361.466+212.112ZM373.029+212.112L373.029+212.819L376.883+212.819L376.883+212.112L373.029+212.112ZM384.598+212.112L384.598+212.819L388.452+212.819L388.452+212.112L384.598+212.112ZM396.16+212.112L396.16+212.819L400.014+212.819L400.014+212.112L396.16+212.112ZM546.509+212.112L546.509+212.819L550.363+212.819L550.363+212.112L546.509+212.112ZM488.683+212.112L488.683+212.819L492.538+212.819L492.538+212.112L488.683+212.112ZM500.252+212.112L500.252+212.819L504.107+212.819L504.107+212.112L500.252+212.112ZM511.815+212.112L511.815+212.819L515.669+212.819L515.669+212.112L511.815+212.112ZM523.378+212.112L523.378+212.819L527.232+212.819L527.232+212.112L523.378+212.112ZM534.947+212.112L534.947+212.819L538.801+212.819L538.801+212.112L534.947+212.112ZM615.899+141.49L615.899+142.201L619.753+142.201L619.753+141.49L615.899+141.49ZM558.078+141.49L558.078+142.201L561.928+142.201L561.928+141.49L558.078+141.49ZM569.642+141.49L569.642+142.201L573.497+142.201L573.497+141.49L569.642+141.49ZM581.205+141.49L581.205+142.201L585.059+142.201L585.059+141.49L581.205+141.49ZM592.774+141.49L592.774+142.201L596.628+142.201L596.628+141.49L592.774+141.49ZM604.337+141.49L604.337+142.201L608.191+142.201L608.191+141.49L604.337+141.49ZM477.119+141.49L477.119+142.201L480.973+142.201L480.973+141.49L477.119+141.49ZM361.466+141.49L361.466+142.201L365.32+142.201L365.32+141.49L361.466+141.49ZM373.029+141.49L373.029+142.201L376.883+142.201L376.883+141.49L373.029+141.49ZM384.598+141.49L384.598+142.201L388.452+142.201L388.452+141.49L384.598+141.49ZM546.509+141.49L546.509+142.201L550.363+142.201L550.363+141.49L546.509+141.49ZM488.683+141.49L488.683+142.201L492.538+142.201L492.538+141.49L488.683+141.49ZM511.815+141.49L511.815+142.201L515.669+142.201L515.669+141.49L511.815+141.49ZM534.947+141.49L534.947+142.201L538.801+142.201L538.801+141.49L534.947+141.49ZM615.899+70.8731L615.899+71.5795L619.753+71.5795L619.753+70.8731L615.899+70.8731ZM558.078+70.8731L558.078+71.5795L561.928+71.5795L561.928+70.8731L558.078+70.8731ZM569.642+70.8731L569.642+71.5795L573.497+71.5795L573.497+70.8731L569.642+70.8731ZM581.205+70.8731L581.205+71.5795L585.059+71.5795L585.059+70.8731L581.205+70.8731ZM592.774+70.8731L592.774+71.5795L596.628+71.5795L596.628+70.8731L592.774+70.8731ZM604.337+70.8731L604.337+71.5795L608.191+71.5795L608.191+70.8731L604.337+70.8731ZM477.119+70.8731L477.119+71.5795L480.973+71.5795L480.973+70.8731L477.119+70.8731ZM419.293+70.8731L419.293+71.5795L423.148+71.5795L423.148+70.8731L419.293+70.8731ZM430.856+70.8731L430.856+71.5795L434.71+71.5795L434.71+70.8731L430.856+70.8731ZM442.425+70.8731L442.425+71.5795L446.279+71.5795L446.279+70.8731L442.425+70.8731ZM453.988+70.8731L453.988+71.5795L457.842+71.5795L457.842+70.8731L453.988+70.8731ZM465.55+70.8731L465.55+71.5795L469.404+71.5795L469.404+70.8731L465.55+70.8731ZM407.724+70.8731L407.724+71.5795L411.579+71.5795L411.579+70.8731L407.724+70.8731ZM349.897+70.8731L349.897+71.5795L353.751+71.5795L353.751+70.8731L349.897+70.8731ZM361.466+70.8731L361.466+71.5795L365.32+71.5795L365.32+70.8731L361.466+70.8731ZM373.029+70.8731L373.029+71.5795L376.883+71.5795L376.883+70.8731L373.029+70.8731ZM384.598+70.8731L384.598+71.5795L388.452+71.5795L388.452+70.8731L384.598+70.8731ZM396.16+70.8731L396.16+71.5795L400.014+71.5795L400.014+70.8731L396.16+70.8731ZM546.509+70.8731L546.509+71.5795L550.363+71.5795L550.363+70.8731L546.509+70.8731ZM488.683+70.8731L488.683+71.5795L492.538+71.5795L492.538+70.8731L488.683+70.8731ZM500.252+70.8731L500.252+71.5795L504.107+71.5795L504.107+70.8731L500.252+70.8731ZM511.815+70.8731L511.815+71.5795L515.669+71.5795L515.669+70.8731L511.815+70.8731ZM523.378+70.8731L523.378+71.5795L527.232+71.5795L527.232+70.8731L523.378+70.8731ZM534.947+70.8731L534.947+71.5795L538.801+71.5795L538.801+70.8731L534.947+70.8731ZM338.334+212.112L338.334+212.819L342.189+212.819L342.189+212.112L338.334+212.112ZM280.507+212.112L280.507+212.819L284.361+212.819L284.361+212.112L280.507+212.112ZM292.076+212.112L292.076+212.819L295.93+212.819L295.93+212.112L292.076+212.112ZM303.639+212.112L303.639+212.819L307.493+212.819L307.493+212.112L303.639+212.112ZM315.201+212.112L315.201+212.819L319.055+212.819L319.055+212.112L315.201+212.112ZM326.77+212.112L326.77+212.819L330.624+212.819L330.624+212.112L326.77+212.112ZM199.548+212.112L199.548+212.819L203.402+212.819L203.402+212.112L199.548+212.112ZM141.72+212.112L141.72+212.819L145.575+212.819L145.575+212.112L141.72+212.112ZM153.289+212.112L153.289+212.819L157.144+212.819L157.144+212.112L153.289+212.112ZM164.852+212.112L164.852+212.819L168.706+212.819L168.706+212.112L164.852+212.112ZM176.421+212.112L176.421+212.819L180.277+212.819L180.277+212.112L176.421+212.112ZM187.985+212.112L187.985+212.819L191.839+212.819L191.839+212.112L187.985+212.112ZM130.158+212.112L130.158+212.819L134.012+212.819L134.012+212.112L130.158+212.112ZM72.3305+212.112L72.3305+212.819L76.1847+212.819L76.1847+212.112L72.3305+212.112ZM83.8995+212.112L83.8995+212.819L87.7473+212.819L87.7473+212.112L83.8995+212.112ZM95.4621+212.112L95.4621+212.819L99.3163+212.819L99.3163+212.112L95.4621+212.112ZM107.026+212.112L107.026+212.819L110.88+212.819L110.88+212.112L107.026+212.112ZM118.595+212.112L118.595+212.819L122.449+212.819L122.449+212.112L118.595+212.112ZM268.944+212.112L268.944+212.819L272.799+212.819L272.799+212.112L268.944+212.112ZM211.117+212.112L211.117+212.819L214.971+212.819L214.971+212.112L211.117+212.112ZM222.68+212.112L222.68+212.819L226.534+212.819L226.534+212.112L222.68+212.112ZM234.249+212.112L234.249+212.819L238.103+212.819L238.103+212.112L234.249+212.112ZM245.811+212.112L245.811+212.819L249.665+212.819L249.665+212.112L245.811+212.112ZM257.375+212.112L257.375+212.819L261.23+212.819L261.23+212.112L257.375+212.112ZM338.334+141.49L338.334+142.201L342.189+142.201L342.189+141.49L338.334+141.49ZM280.507+141.49L280.507+142.201L284.361+142.201L284.361+141.49L280.507+141.49ZM292.076+141.49L292.076+142.201L295.93+142.201L295.93+141.49L292.076+141.49ZM303.639+141.49L303.639+142.201L307.493+142.201L307.493+141.49L303.639+141.49ZM315.201+141.49L315.201+142.201L319.055+142.201L319.055+141.49L315.201+141.49ZM326.77+141.49L326.77+142.201L330.624+142.201L330.624+141.49L326.77+141.49ZM199.548+141.49L199.548+142.201L203.402+142.201L203.402+141.49L199.548+141.49ZM141.72+141.49L141.72+142.201L145.575+142.201L145.575+141.49L141.72+141.49ZM164.852+141.49L164.852+142.201L168.706+142.201L168.706+141.49L164.852+141.49ZM176.421+141.49L176.421+142.201L180.277+142.201L180.277+141.49L176.421+141.49ZM187.985+141.49L187.985+142.201L191.839+142.201L191.839+141.49L187.985+141.49ZM130.158+141.49L130.158+142.201L134.012+142.201L134.012+141.49L130.158+141.49ZM72.3305+141.49L72.3305+142.201L76.1847+142.201L76.1847+141.49L72.3305+141.49ZM83.8995+141.49L83.8995+142.201L87.7473+142.201L87.7473+141.49L83.8995+141.49ZM95.4621+141.49L95.4621+142.201L99.3163+142.201L99.3163+141.49L95.4621+141.49ZM107.026+141.49L107.026+142.201L110.88+142.201L110.88+141.49L107.026+141.49ZM118.595+141.49L118.595+142.201L122.449+142.201L122.449+141.49L118.595+141.49ZM270.627+141.49L270.803+142.201L272.799+142.201L272.799+141.49L270.627+141.49ZM211.117+141.49L211.117+142.201L214.971+142.201L214.971+141.49L211.117+141.49ZM222.68+141.49L222.68+142.201L226.534+142.201L226.534+141.49L222.68+141.49ZM234.249+141.49L234.249+142.201L238.103+142.201L238.103+141.49L234.249+141.49ZM248.618+141.49L248.287+142.201L249.665+142.201L249.665+141.49L248.618+141.49ZM257.375+141.49L257.375+142.201L261.23+142.201L261.23+141.49L257.375+141.49ZM338.334+70.8731L338.334+71.5795L342.189+71.5795L342.189+70.8731L338.334+70.8731ZM280.507+70.8731L280.507+71.5795L284.361+71.5795L284.361+70.8731L280.507+70.8731ZM292.076+70.8731L292.076+71.5795L295.924+71.5795L295.924+70.8731L292.076+70.8731ZM303.639+70.8731L303.639+71.5795L307.493+71.5795L307.493+70.8731L303.639+70.8731ZM315.201+70.8731L315.201+71.5795L319.055+71.5795L319.055+70.8731L315.201+70.8731ZM326.77+70.8731L326.77+71.5795L330.624+71.5795L330.624+70.8731L326.77+70.8731ZM199.548+70.8731L199.548+71.5795L203.402+71.5795L203.402+70.8731L199.548+70.8731ZM141.72+70.8731L141.72+71.5795L145.575+71.5795L145.575+70.8731L141.72+70.8731ZM153.289+70.8731L153.289+71.5795L157.144+71.5795L157.144+70.8731L153.289+70.8731ZM164.852+70.8731L164.852+71.5795L168.706+71.5795L168.706+70.8731L164.852+70.8731ZM176.421+70.8731L176.421+71.5795L180.277+71.5795L180.277+70.8731L176.421+70.8731ZM187.985+70.8731L187.985+71.5795L191.839+71.5795L191.839+70.8731L187.985+70.8731ZM130.158+70.8731L130.158+71.5795L134.012+71.5795L134.012+70.8731L130.158+70.8731ZM72.3305+70.8731L72.3305+71.5795L76.1847+71.5795L76.1847+70.8731L72.3305+70.8731ZM83.8995+70.8731L83.8995+71.5795L87.7473+71.5795L87.7473+70.8731L83.8995+70.8731ZM95.4621+70.8731L95.4621+71.5795L99.3163+71.5795L99.3163+70.8731L95.4621+70.8731ZM107.026+70.8731L107.026+71.5795L110.88+71.5795L110.88+70.8731L107.026+70.8731ZM118.595+70.8731L118.595+71.5795L122.449+71.5795L122.449+70.8731L118.595+70.8731ZM268.944+70.8731L268.944+71.5795L272.799+71.5795L272.799+70.8731L268.944+70.8731ZM211.117+70.8731L211.117+71.5795L214.971+71.5795L214.971+70.8731L211.117+70.8731ZM222.68+70.8731L222.68+71.5795L226.534+71.5795L226.534+70.8731L222.68+70.8731ZM234.249+70.8731L234.249+71.5795L238.103+71.5795L238.103+70.8731L234.249+70.8731ZM245.811+70.8731L245.811+71.5795L249.665+71.5795L249.665+70.8731L245.811+70.8731ZM257.375+70.8731L257.375+71.5795L261.23+71.5795L261.23+70.8731L257.375+70.8731ZM345.699+216.512L346.391+216.512L346.391+220.442L345.699+220.442L345.699+216.512ZM345.699+133.987L346.391+133.987L346.391+137.916L345.699+137.916L345.699+133.987ZM345.699+75.0381L346.391+75.0381L346.391+78.9672L345.699+78.9672L345.699+75.0381ZM345.699+86.8253L346.391+86.8253L346.391+90.7543L345.699+90.7543L345.699+86.8253ZM345.699+98.619L346.391+98.619L346.391+102.548L345.699+102.548L345.699+98.619ZM345.699+110.406L346.391+110.406L346.391+114.335L345.699+114.335L345.699+110.406ZM345.699+122.193L346.391+122.193L346.391+126.122L345.699+126.122L345.699+122.193ZM345.699+63.2445L346.391+63.2445L346.391+67.1735L345.699+67.1735L345.699+63.2445ZM345.699+4.29406L346.391+4.29406L346.391+8.22311L345.699+8.22311L345.699+4.29406ZM345.699+16.0877L346.391+16.0877L346.391+20.0167L345.699+20.0167L345.699+16.0877ZM345.699+27.8748L346.391+27.8748L346.391+31.8039L345.699+31.8039L345.699+27.8748ZM345.699+39.6685L346.391+39.6685L346.391+43.5976L345.699+43.5976L345.699+39.6685ZM345.699+51.4557L346.391+51.4557L346.391+55.3847L345.699+55.3847L345.699+51.4557ZM345.699+204.724L346.391+204.724L346.391+208.654L345.699+208.654L345.699+204.724ZM345.699+145.776L346.391+145.776L346.391+149.705L345.699+149.705L345.699+145.776ZM345.699+157.569L346.391+157.569L346.391+161.498L345.699+161.498L345.699+157.569ZM345.699+169.357L346.391+169.357L346.391+173.286L345.699+173.286L345.699+169.357ZM345.699+181.144L346.391+181.144L346.391+185.073L345.699+185.073L345.699+181.144ZM345.699+192.937L346.391+192.937L346.391+196.866L345.699+196.866L345.699+192.937ZM553.526+216.512L554.218+216.512L554.218+220.442L553.526+220.442L553.526+216.512ZM553.526+228.307L554.218+228.307L554.218+232.236L553.526+232.236L553.526+228.307ZM553.526+240.094L554.218+240.094L554.218+244.023L553.526+244.023L553.526+240.094ZM553.526+251.888L554.218+251.888L554.218+255.817L553.526+255.817L553.526+251.888ZM553.526+263.675L554.218+263.675L554.218+267.293L553.526+266.937L553.526+263.675ZM553.526+133.987L554.218+133.987L554.218+137.916L553.526+137.916L553.526+133.987ZM553.526+75.0381L554.218+75.0381L554.218+78.9672L553.526+78.9672L553.526+75.0381ZM553.526+86.8253L554.218+86.8253L554.218+90.7543L553.526+90.7543L553.526+86.8253ZM553.526+98.619L554.218+98.619L554.218+102.548L553.526+102.548L553.526+98.619ZM553.526+110.406L554.218+110.406L554.218+114.335L553.526+114.335L553.526+110.406ZM553.526+122.193L554.218+122.193L554.218+126.122L553.526+126.122L553.526+122.193ZM553.526+63.2445L554.218+63.2445L554.218+67.1735L553.526+67.1735L553.526+63.2445ZM553.526+4.29406L554.218+4.29406L554.218+8.22311L553.526+8.22311L553.526+4.29406ZM553.526+16.0877L554.218+16.0877L554.218+20.0167L553.526+20.0167L553.526+16.0877ZM553.526+27.8748L554.218+27.8748L554.218+31.8039L553.526+31.8039L553.526+27.8748ZM553.526+39.6685L554.218+39.6685L554.218+43.5976L553.526+43.5976L553.526+39.6685ZM553.526+51.4557L554.218+51.4557L554.218+55.3847L553.526+55.3847L553.526+51.4557ZM553.526+204.724L554.218+204.724L554.218+208.654L553.526+208.654L553.526+204.724ZM553.526+145.776L554.218+145.776L554.218+149.705L553.526+149.705L553.526+145.776ZM553.526+157.569L554.218+157.569L554.218+161.498L553.526+161.498L553.526+157.569ZM553.526+169.357L554.218+169.357L554.218+173.286L553.526+173.286L553.526+169.357ZM553.526+181.144L554.218+181.144L554.218+185.073L553.526+185.073L553.526+181.144ZM553.526+192.937L554.218+192.937L554.218+196.866L553.526+196.866L553.526+192.937ZM484.248+133.987L484.941+133.987L484.941+137.916L484.248+137.916L484.248+133.987ZM484.248+75.0381L484.941+75.0381L484.941+78.9672L484.248+78.9672L484.248+75.0381ZM484.248+86.8253L484.941+86.8253L484.941+90.7543L484.248+90.7543L484.248+86.8253ZM484.248+98.619L484.941+98.619L484.941+102.548L484.248+102.548L484.248+98.619ZM484.248+110.406L484.941+110.406L484.941+114.335L484.248+114.335L484.248+110.406ZM484.248+122.193L484.941+122.193L484.941+126.122L484.248+126.122L484.248+122.193ZM484.248+63.2445L484.941+63.2445L484.941+67.1735L484.248+67.1735L484.248+63.2445ZM484.248+4.29406L484.941+4.29406L484.941+8.22311L484.248+8.22311L484.248+4.29406ZM484.248+16.0877L484.941+16.0877L484.941+20.0167L484.248+20.0167L484.248+16.0877ZM484.248+27.8748L484.941+27.8748L484.941+31.8039L484.248+31.8039L484.248+27.8748ZM484.248+39.6685L484.941+39.6685L484.941+43.5976L484.248+43.5976L484.248+39.6685ZM484.248+51.4557L484.941+51.4557L484.941+55.3847L484.248+55.3847L484.248+51.4557ZM484.248+145.776L484.941+145.776L484.941+149.705L484.248+149.705L484.248+145.776ZM484.248+157.569L484.941+157.569L484.941+161.498L484.248+161.498L484.248+157.569ZM484.248+169.357L484.941+169.357L484.941+173.286L484.248+173.286L484.248+169.357ZM414.971+75.0381L415.669+75.0381L415.669+78.9672L414.971+78.9672L414.971+75.0381ZM414.971+86.8253L415.669+86.8253L415.669+90.7543L414.971+90.7543L414.971+86.8253ZM414.971+63.2445L415.669+63.2445L415.669+67.1735L414.971+67.1735L414.971+63.2445ZM414.971+4.29406L415.669+4.29406L415.669+8.22311L414.971+8.22311L414.971+4.29406ZM414.971+16.0877L415.669+16.0877L415.669+20.0167L414.971+20.0167L414.971+16.0877ZM414.971+27.8748L415.669+27.8748L415.669+31.8039L414.971+31.8039L414.971+27.8748ZM414.971+39.6685L415.669+39.6685L415.669+43.5976L414.971+43.5976L414.971+39.6685ZM414.971+51.4557L415.669+51.4557L415.669+55.3847L414.971+55.3847L414.971+51.4557ZM276.421+216.512L277.114+216.512L277.114+220.442L276.421+220.442L276.421+216.512ZM276.421+228.307L277.114+228.307L277.114+232.236L276.421+232.236L276.421+228.307ZM276.421+240.094L277.114+240.094L277.114+244.023L276.421+244.023L276.421+240.094ZM276.421+251.888L277.114+251.888L277.114+255.817L276.421+255.817L276.421+251.888ZM276.421+263.675L277.114+263.675L277.114+267.604L276.421+267.604L276.421+263.675ZM276.421+133.987L277.114+133.987L277.114+137.916L276.421+137.916L276.421+133.987ZM276.421+75.0381L277.114+75.0381L277.114+78.9672L276.421+78.9672L276.421+75.0381ZM276.421+86.8253L277.114+86.8253L277.114+90.7543L276.421+90.7543L276.421+86.8253ZM276.421+98.619L277.114+98.619L277.114+102.548L276.421+102.548L276.421+98.619ZM276.421+110.406L277.114+110.406L277.114+114.335L276.421+114.335L276.421+110.406ZM276.421+122.193L277.114+122.193L277.114+126.122L276.421+126.122L276.421+122.193ZM276.421+63.2445L277.114+63.2445L277.114+67.1735L276.421+67.1735L276.421+63.2445ZM276.421+4.29406L277.114+4.29406L277.114+8.22311L276.421+8.22311L276.421+4.29406ZM276.421+16.0877L277.114+16.0877L277.114+20.0167L276.421+20.0167L276.421+16.0877ZM276.421+27.8748L277.114+27.8748L277.114+31.8039L276.421+31.8039L276.421+27.8748ZM276.421+39.6685L277.114+39.6685L277.114+43.5976L276.421+43.5976L276.421+39.6685ZM276.421+51.4557L277.114+51.4557L277.114+55.3847L276.421+55.3847L276.421+51.4557ZM276.421+204.724L277.114+204.724L277.114+208.654L276.421+208.654L276.421+204.724ZM276.421+145.776L277.114+145.776L277.114+149.705L276.421+149.705L276.421+145.776ZM276.421+157.569L277.114+157.569L277.114+161.498L276.421+161.498L276.421+157.569ZM276.421+169.357L277.114+169.357L277.114+173.286L276.421+173.286L276.421+169.357ZM276.421+181.144L277.114+181.144L277.114+185.073L276.421+185.073L276.421+181.144ZM276.421+192.937L277.114+192.937L277.114+196.866L276.421+196.866L276.421+192.937ZM207.145+275.462L207.836+275.462L207.836+279.391L207.145+279.391L207.145+275.462ZM207.145+216.512L207.836+216.512L207.836+220.442L207.145+220.442L207.145+216.512ZM207.145+228.307L207.836+228.307L207.836+232.236L207.145+232.236L207.145+228.307ZM207.145+240.094L207.836+240.094L207.836+244.023L207.145+244.023L207.145+240.094ZM207.145+251.888L207.836+251.888L207.836+255.817L207.145+255.817L207.145+251.888ZM207.145+263.675L207.836+263.675L207.836+267.604L207.145+267.604L207.145+263.675ZM207.145+133.987L207.836+133.987L207.836+137.916L207.145+137.916L207.145+133.987ZM207.145+75.0381L207.836+75.0381L207.836+78.9672L207.145+78.9672L207.145+75.0381ZM207.145+86.8253L207.836+86.8253L207.836+90.7543L207.145+90.7543L207.145+86.8253ZM207.145+98.619L207.836+98.619L207.836+102.548L207.145+102.548L207.145+98.619ZM207.145+110.406L207.836+110.406L207.836+114.335L207.145+114.335L207.145+110.406ZM207.145+122.193L207.836+122.193L207.836+126.122L207.145+126.122L207.145+122.193ZM207.145+63.2445L207.836+63.2445L207.836+67.1735L207.145+67.1735L207.145+63.2445ZM207.145+4.29406L207.836+4.29406L207.836+8.22311L207.145+8.22311L207.145+4.29406ZM207.145+16.0877L207.836+16.0877L207.836+20.0167L207.145+20.0167L207.145+16.0877ZM207.145+27.8748L207.836+27.8748L207.836+31.8039L207.145+31.8039L207.145+27.8748ZM207.145+39.6685L207.836+39.6685L207.836+43.5976L207.145+43.5976L207.145+39.6685ZM207.145+51.4557L207.836+51.4557L207.836+55.3847L207.145+55.3847L207.145+51.4557ZM207.145+204.724L207.836+204.724L207.836+208.654L207.145+208.654L207.145+204.724ZM207.145+145.776L207.836+145.776L207.836+149.705L207.145+149.705L207.145+145.776ZM207.145+157.569L207.836+157.569L207.836+161.498L207.145+161.498L207.145+157.569ZM207.145+169.357L207.836+169.357L207.836+173.286L207.145+173.286L207.145+169.357ZM207.145+181.144L207.836+181.144L207.836+183.885L207.113+185.41L207.145+181.144ZM207.145+192.937L207.836+192.937L207.836+196.866L207.145+196.866L207.145+192.937ZM137.866+275.462L138.566+275.462L138.566+279.391L137.866+279.391L137.866+275.462ZM137.866+216.512L138.566+216.512L138.566+220.442L137.866+220.442L137.866+216.512ZM137.866+228.307L138.566+228.307L138.566+232.236L137.866+232.236L137.866+228.307ZM137.866+240.094L138.566+240.094L138.566+244.023L137.866+244.023L137.866+240.094ZM137.866+251.888L138.566+251.888L138.566+255.817L137.866+255.817L137.866+251.888ZM137.866+263.675L138.566+263.675L138.566+267.604L137.866+267.604L137.866+263.675ZM137.866+133.987L138.566+133.987L138.566+137.916L137.866+137.916L137.866+133.987ZM137.866+75.0381L138.566+75.0381L138.566+78.9672L137.866+78.9672L137.866+75.0381ZM137.866+86.8253L138.566+86.8253L138.566+90.7543L137.866+90.7543L137.866+86.8253ZM137.866+98.619L138.566+98.619L138.566+102.548L137.866+102.548L137.866+98.619ZM137.866+110.406L138.566+110.406L138.566+114.335L137.866+114.335L137.866+110.406ZM137.866+122.193L138.566+122.193L138.566+126.122L137.866+126.122L137.866+122.193ZM137.866+63.2445L138.566+63.2445L138.566+67.1735L137.866+67.1735L137.866+63.2445ZM137.866+4.29406L138.566+4.29406L138.566+8.22311L137.866+8.22311L137.866+4.29406ZM137.866+16.0877L138.566+16.0877L138.566+20.0167L137.866+20.0167L137.866+16.0877ZM137.866+27.8748L138.566+27.8748L138.566+31.8039L137.866+31.8039L137.866+27.8748ZM137.866+39.6685L138.566+39.6685L138.566+43.5976L137.866+43.5976L137.866+39.6685ZM137.866+51.4557L138.566+51.4557L138.566+55.3847L137.866+55.3847L137.866+51.4557ZM137.866+204.724L138.566+204.724L138.566+208.654L137.866+208.654L137.866+204.724ZM137.866+145.776L138.566+145.776L138.566+149.705L137.866+149.705L137.866+145.776ZM137.866+157.569L138.566+157.569L138.566+161.498L137.866+161.498L137.866+157.569ZM137.866+169.357L138.566+169.357L138.566+173.286L137.866+173.286L137.866+169.357ZM137.866+181.144L138.566+181.144L138.566+185.073L137.866+185.073L137.866+181.144ZM137.866+192.937L138.566+192.937L138.566+196.866L137.866+196.866L137.866+192.937ZM68.4763+0.365003L68.4763+283.327L623.614+283.327L623.614+0.365003L68.4763+0.365003ZM68.8259+0.719851L623.266+0.719851L623.266+280.498L68.8259+280.498L68.8259+0.719851ZM300.789+33.6155C251.725+33.6155+239.369+119.071+214.516+170.081C187.767+224.982+167.522+279.08+69.1436+281.395C80.6823+281.395+88.2279+282.762+99.4664+281.675C172.262+271.902+194.434+219.012+217.291+170.081C244.626+111.576+255.099+36.4458+300.789+36.4458C347.189+36.4458+354.3+105.536+380.026+158.668L381.323+154.791C356.47+103.782+349.859+33.6155+300.789+33.6155ZM349.796+174.055L349.579+168.307C348.805+169.287+347.994+170.195+347.146+171.028C346.298+171.835+345.369+172.542+344.346+173.146C343.33+173.756+342.219+174.213+341.009+174.532C339.818+174.874+338.515+175.047+337.086+175.047C335.197+175.047+333.538+174.716+332.109+174.055C330.675+173.393+329.478+172.472+328.51+171.288C327.544+170.107+326.802+168.683+326.298+167.009C325.811+165.344+325.568+163.5+325.568+161.485C325.568+159.407+325.929+157.493+326.658+155.738C327.407+153.977+328.536+152.47+330.038+151.199C331.56+149.933+333.45+148.941+335.702+148.217C337.978+147.498+340.641+147.135+343.697+147.135L348.524+147.135L348.524+144.503C348.524+143.378+348.393+142.374+348.125+141.477C347.863+140.556+347.427+139.78+346.822+139.143C346.236+138.515+345.474+138.025+344.532+137.675C343.586+137.332+342.425+137.161+341.041+137.161C338.864+137.161+336.706+137.459+334.579+138.062C332.472+138.642+330.425+139.462+328.435+140.53L328.435+132.105C330.208+131.266+332.24+130.58+334.542+130.027C336.869+129.48+339.275+129.207+341.77+129.207C344.508+129.207+346.854+129.524+348.818+130.16C350.777+130.764+352.391+131.685+353.651+132.926C354.929+134.166+355.878+135.717+356.483+137.592C357.088+139.436+357.393+141.591+357.393+144.072L357.393+174.055L349.796+174.055ZM348.524+154.658L343.111+154.658C341.614+154.658+340.341+154.828+339.3+155.172C338.259+155.522+337.41+155.999+336.755+156.603C336.101+157.206+335.62+157.913+335.302+158.72C335.015+159.495+334.867+160.328+334.867+161.225C334.867+163.01+335.352+164.378+336.319+165.325C337.292+166.248+338.607+166.712+340.279+166.712C341.515+166.712+342.798+166.178+344.133+165.108C345.462+164.047+346.927+162.522+348.524+160.532L348.524+154.658ZM517.946+174.055L517.946+145.45C517.946+140.644+516.442+138.241+513.442+138.241C511.94+138.241+510.499+138.959+509.12+140.396C507.761+141.84+506.32+143.798+504.798+146.277L504.798+174.055L495.93+174.055L495.93+130.16L503.594+130.16L503.813+136.638C504.568+135.514+505.341+134.496+506.139+133.573C506.963+132.652+507.847+131.871+508.789+131.241C509.738+130.58+510.755+130.071+511.845+129.727C512.931+129.384+514.16+129.207+515.513+129.207C517.403+129.207+519.049+129.581+520.453+130.331C521.856+131.051+523.034+132.086+523.976+133.44C524.925+134.77+525.622+136.378+526.084+138.279C526.571+140.154+526.807+142.258+526.807+144.592L526.807+174.055L517.946+174.055ZM271.532+148.738C271.532+149.456+271.507+150.39+271.457+151.547C271.432+152.698+271.382+153.78+271.314+154.785L247.047+154.785C247.047+156.717+247.29+158.414+247.77+159.884C248.281+161.352+248.98+162.592+249.878+163.603C250.801+164.581+251.886+165.325+253.146+165.847C254.431+166.368+255.847+166.622+257.399+166.622C259.189+166.622+261.105+166.463+263.137+166.152C265.195+165.802+267.329+165.255+269.53+164.505L269.53+172.892C268.588+173.203+267.558+173.496+266.442+173.756C265.333+174.01+264.191+174.246+263.032+174.443C261.865+174.646+260.693+174.793+259.508+174.874C258.316+174.99+257.169+175.047+256.052+175.047C253.247+175.047+250.727+174.576+248.5+173.622C246.268+172.675+244.384+171.277+242.83+169.433C241.283+167.563+240.092+165.255+239.27+162.522C238.446+159.781+238.034+156.616+238.034+153.017C238.034+149.443+238.446+146.2+239.27+143.295C240.092+140.357+241.259+137.846+242.755+135.774C244.259+133.676+246.073+132.061+248.206+130.935C250.365+129.784+252.76+129.207+255.397+129.207C258.017+129.207+260.331+129.697+262.339+130.675C264.348+131.629+266.031+132.97+267.391+134.693C268.745+136.422+269.773+138.482+270.479+140.873C271.176+143.264+271.532+145.883+271.532+148.738ZM262.52+147.224C262.545+145.496+262.365+144.002+261.977+142.729C261.59+141.433+261.054+140.37+260.374+139.532C259.726+138.699+258.946+138.082+258.054+137.675C257.181+137.275+256.234+137.071+255.217+137.071C252.989+137.071+251.163+137.968+249.734+139.747C248.307+141.508+247.459+144.002+247.191+147.224L262.52+147.224ZM153.302+174.055L153.302+117.584L162.382+117.584L162.382+164.938L182.434+164.938L182.434+174.055L153.302+174.055ZM622.73+324.787L619.736+324.787L614.322+318.766L612.85+320.197L612.85+324.787L610.579+324.787L610.579+305.63L612.85+305.63L612.85+317.92L619.405+311.035L622.268+311.035L616+317.386L622.73+324.787ZM608.322+313.558L608.197+313.558C607.86+313.477+607.53+313.42+607.206+313.387C606.894+313.35+606.519+313.324+606.083+313.324C605.384+313.324+604.71+313.49+604.056+313.807C603.401+314.118+602.778+314.525+602.173+315.028L602.173+324.787L599.903+324.787L599.903+311.035L602.173+311.035L602.173+313.07C603.077+312.332+603.869+311.81+604.549+311.505C605.24+311.193+605.946+311.035+606.663+311.035C607.062+311.035+607.343+311.048+607.523+311.073C607.699+311.092+607.967+311.123+608.322+311.182L608.322+313.558ZM596.373+317.92C596.373+320.158+595.811+321.925+594.682+323.223C593.553+324.52+592.044+325.168+590.154+325.168C588.246+325.168+586.731+324.52+585.602+323.223C584.48+321.925+583.924+320.158+583.924+317.92C583.924+315.675+584.48+313.908+585.602+312.611C586.731+311.309+588.246+310.653+590.154+310.653C592.044+310.653+593.553+311.309+594.682+312.611C595.811+313.908+596.373+315.675+596.373+317.92ZM594.034+317.92C594.034+316.139+593.691+314.818+593.004+313.953C592.319+313.083+591.371+312.65+590.154+312.65C588.92+312.65+587.965+313.083+587.279+313.953C586.606+314.818+586.263+316.139+586.263+317.92C586.263+319.644+586.606+320.952+587.291+321.849C587.978+322.733+588.933+323.179+590.154+323.179C591.364+323.179+592.306+322.739+592.993+321.855C593.684+320.972+594.034+319.657+594.034+317.92ZM581.604+311.035L578.087+324.787L575.984+324.787L572.523+314.188L569.08+324.787L566.99+324.787L563.436+311.035L565.806+311.035L568.282+321.685L571.649+311.035L573.521+311.035L576.976+321.685L579.321+311.035L581.604+311.035ZM561.877+324.666C561.453+324.78+560.986+324.876+560.48+324.951C559.981+325.021+559.533+325.06+559.138+325.06C557.761+325.06+556.713+324.684+555.996+323.929C555.279+323.172+554.923+321.964+554.923+320.298L554.923+312.98L553.389+312.98L553.389+311.035L554.923+311.035L554.923+307.087L557.194+307.087L557.194+311.035L561.877+311.035L561.877+312.98L557.194+312.98L557.194+319.25C557.194+319.974+557.211+320.54+557.243+320.947C557.275+321.348+557.387+321.728+557.58+322.078C557.754+322.409+557.998+322.65+558.303+322.809C558.621+322.956+559.095+323.026+559.732+323.026C560.1+323.026+560.486+322.975+560.891+322.866C561.291+322.752+561.584+322.656+561.758+322.586L561.877+322.586L561.877+324.666ZM551.43+318.156L541.49+318.156C541.49+319.001+541.614+319.738+541.863+320.368C542.112+320.991+542.455+321.505+542.893+321.906C543.31+322.301+543.809+322.599+544.376+322.796C544.957+322.993+545.593+323.089+546.286+323.089C547.202+323.089+548.125+322.905+549.054+322.536C549.983+322.161+550.651+321.792+551.044+321.429L551.168+321.429L551.168+323.953C550.402+324.277+549.623+324.557+548.824+324.774C548.026+324.997+547.189+325.111+546.31+325.111C544.071+325.111+542.325+324.494+541.071+323.26C539.811+322.021+539.187+320.267+539.187+317.99C539.187+315.745+539.786+313.96+540.983+312.637C542.194+311.315+543.777+310.653+545.743+310.653C547.563+310.653+548.966+311.193+549.947+312.28C550.938+313.361+551.43+314.901+551.43+316.896L551.43+318.156ZM549.223+316.382C549.211+315.168+548.911+314.227+548.318+313.558C547.726+312.897+546.829+312.56+545.625+312.56C544.408+312.56+543.436+312.93+542.711+313.66C541.994+314.391+541.589+315.295+541.49+316.382L549.223+316.382ZM535.539+324.787L532.577+324.787L524.051+308.39L524.051+324.787L521.818+324.787L521.818+306.457L525.523+306.457L533.301+321.429L533.301+306.457L535.539+306.457L535.539+324.787ZM508.566+324.787L506.296+324.787L506.296+316.96C506.296+316.325+506.257+315.732+506.189+315.185C506.115+314.627+505.984+314.194+505.789+313.883C505.59+313.533+505.298+313.28+504.918+313.114C504.542+312.943+504.051+312.86+503.446+312.86C502.828+312.86+502.18+313.013+501.499+313.324C500.826+313.634+500.177+314.035+499.559+314.518L499.559+324.787L497.283+324.787L497.283+305.63L499.559+305.63L499.559+312.56C500.264+311.963+501+311.499+501.755+311.162C502.51+310.825+503.289+310.653+504.087+310.653C505.54+310.653+506.656+311.105+507.418+311.995C508.184+312.891+508.566+314.181+508.566+315.861L508.566+324.787ZM494.364+323.929C493.604+324.297+492.886+324.583+492.201+324.787C491.527+324.997+490.804+325.098+490.036+325.098C489.063+325.098+488.171+324.951+487.36+324.666C486.544+324.373+485.845+323.929+485.271+323.337C484.679+322.746+484.224+321.995+483.905+321.092C483.581+320.19+483.419+319.134+483.419+317.933C483.419+315.682+484.025+313.914+485.233+312.637C486.45+311.359+488.053+310.716+490.036+310.716C490.81+310.716+491.57+310.825+492.312+311.048C493.061+311.269+493.741+311.543+494.364+311.862L494.364+314.437L494.24+314.437C493.547+313.883+492.83+313.463+492.094+313.164C491.358+312.873+490.641+312.726+489.943+312.726C488.651+312.726+487.634+313.164+486.887+314.054C486.145+314.932+485.776+316.222+485.776+317.933C485.776+319.587+486.138+320.864+486.862+321.761C487.598+322.645+488.621+323.089+489.943+323.089C490.405+323.089+490.866+323.026+491.347+322.905C491.819+322.783+492.244+322.625+492.624+322.428C492.954+322.249+493.267+322.072+493.553+321.881C493.847+321.685+494.072+321.519+494.24+321.379L494.364+321.379L494.364+323.929ZM482.222+313.558L482.102+313.558C481.767+313.477+481.436+313.42+481.111+313.387C480.799+313.35+480.426+313.324+479.988+313.324C479.291+313.324+478.61+313.49+477.962+313.807C477.308+314.118+476.683+314.525+476.078+315.028L476.078+324.787L473.808+324.787L473.808+311.035L476.078+311.035L476.078+313.07C476.977+312.332+477.775+311.81+478.454+311.505C479.147+311.193+479.851+311.035+480.569+311.035C480.962+311.035+481.248+311.048+481.43+311.073C481.604+311.092+481.872+311.123+482.222+311.182L482.222+313.558ZM469.411+324.787L467.153+324.787L467.153+323.324C466.947+323.463+466.673+323.662+466.331+323.916C465.994+324.163+465.664+324.36+465.338+324.507C464.958+324.697+464.528+324.85+464.035+324.971C463.542+325.104+462.969+325.168+462.308+325.168C461.091+325.168+460.063+324.761+459.215+323.94C458.372+323.12+457.949+322.072+457.949+320.801C457.949+319.757+458.166+318.918+458.597+318.276C459.039+317.627+459.67+317.119+460.486+316.75C461.303+316.382+462.288+316.128+463.443+315.999C464.597+315.866+465.831+315.771+467.153+315.701L467.153+315.345C467.153+314.818+467.061+314.385+466.872+314.041C466.698+313.698+466.436+313.424+466.099+313.227C465.775+313.037+465.395+312.91+464.939+312.847C464.49+312.783+464.016+312.744+463.53+312.744C462.932+312.744+462.271+312.827+461.535+312.993C460.805+313.151+460.044+313.38+459.264+313.686L459.146+313.686L459.146+311.333C459.588+311.206+460.224+311.073+461.067+310.926C461.902+310.78+462.726+310.705+463.542+310.705C464.49+310.705+465.314+310.786+466.018+310.952C466.724+311.105+467.334+311.379+467.853+311.759C468.357+312.14+468.743+312.63+469.012+313.227C469.274+313.826+469.411+314.57+469.411+315.454L469.411+324.787ZM467.153+321.405L467.153+317.576C466.462+317.616+465.644+317.679+464.696+317.762C463.767+317.837+463.024+317.959+462.477+318.117C461.827+318.302+461.297+318.6+460.891+319.001C460.492+319.394+460.293+319.941+460.293+320.641C460.293+321.429+460.524+322.021+460.992+322.428C461.46+322.822+462.17+323.019+463.131+323.019C463.93+323.019+464.653+322.86+465.314+322.549C465.975+322.231+466.586+321.849+467.153+321.405ZM455.485+318.156L445.543+318.156C445.543+319.001+445.668+319.738+445.917+320.368C446.167+320.991+446.511+321.505+446.947+321.906C447.365+322.301+447.857+322.599+448.431+322.796C449.011+322.993+449.646+323.089+450.339+323.089C451.256+323.089+452.179+322.905+453.101+322.536C454.037+322.161+454.704+321.792+455.097+321.429L455.217+321.429L455.217+323.953C454.455+324.277+453.67+324.557+452.878+324.774C452.08+324.997+451.237+325.111+450.365+325.111C448.125+325.111+446.378+324.494+445.118+323.26C443.865+322.021+443.236+320.267+443.236+317.99C443.236+315.745+443.835+313.96+445.039+312.637C446.242+311.315+447.833+310.653+449.797+310.653C451.612+310.653+453.015+311.193+454+312.28C454.985+313.361+455.485+314.901+455.485+316.896L455.485+318.156ZM453.271+316.382C453.264+315.168+452.964+314.227+452.365+313.558C451.78+312.897+450.882+312.56+449.672+312.56C448.455+312.56+447.489+312.93+446.766+313.66C446.048+314.391+445.644+315.295+445.543+316.382L453.271+316.382ZM440.927+320.825C440.927+322.078+440.416+323.109+439.393+323.916C438.384+324.717+436.993+325.124+435.228+325.124C434.23+325.124+433.313+325.003+432.477+324.767C431.648+324.52+430.949+324.253+430.388+323.966L430.388+321.366L430.506+321.366C431.223+321.919+432.022+322.358+432.895+322.682C433.775+323.006+434.616+323.166+435.421+323.166C436.419+323.166+437.198+323+437.766+322.669C438.328+322.345+438.608+321.825+438.608+321.118C438.608+320.578+438.459+320.171+438.152+319.891C437.848+319.611+437.262+319.37+436.388+319.173C436.064+319.103+435.646+319.014+435.122+318.918C434.603+318.817+434.137+318.709+433.706+318.594C432.521+318.276+431.678+317.806+431.18+317.196C430.693+316.566+430.444+315.802+430.444+314.901C430.444+314.334+430.556+313.8+430.781+313.304C431.017+312.803+431.367+312.35+431.835+311.956C432.283+311.575+432.858+311.269+433.549+311.048C434.249+310.819+435.034+310.705+435.895+310.705C436.7+310.705+437.511+310.806+438.333+311.009C439.163+311.206+439.85+311.448+440.397+311.74L440.397+314.214L440.279+314.214C439.7+313.774+438.994+313.413+438.165+313.114C437.335+312.814+436.519+312.663+435.727+312.663C434.897+312.663+434.193+312.827+433.625+313.151C433.051+313.477+432.764+313.953+432.764+314.595C432.764+315.161+432.94+315.588+433.281+315.872C433.625+316.159+434.167+316.395+434.929+316.579C435.346+316.675+435.813+316.776+436.326+316.872C436.85+316.973+437.286+317.062+437.635+317.145C438.689+317.386+439.5+317.812+440.073+318.41C440.642+319.02+440.927+319.821+440.927+320.825ZM427.85+318.156L417.908+318.156C417.908+319.001+418.034+319.738+418.283+320.368C418.532+320.991+418.875+321.505+419.311+321.906C419.729+322.301+420.223+322.599+420.796+322.796C421.375+322.993+422.012+323.089+422.704+323.089C423.622+323.089+424.545+322.905+425.467+322.536C426.403+322.161+427.07+321.792+427.463+321.429L427.581+321.429L427.581+323.953C426.82+324.277+426.034+324.557+425.242+324.774C424.444+324.997+423.609+325.111+422.729+325.111C420.491+325.111+418.744+324.494+417.484+323.26C416.231+322.021+415.6+320.267+415.6+317.99C415.6+315.745+416.199+313.96+417.403+312.637C418.607+311.315+420.197+310.653+422.162+310.653C423.983+310.653+425.38+311.193+426.365+312.28C427.351+313.361+427.85+314.901+427.85+316.896L427.85+318.156ZM425.641+316.382C425.629+315.168+425.33+314.227+424.731+313.558C424.145+312.897+423.247+312.56+422.036+312.56C420.821+312.56+419.854+312.93+419.131+313.66C418.414+314.391+418.008+315.295+417.908+316.382L425.641+316.382ZM414.995+324.787L411.896+324.787L405.877+317.5L402.51+317.5L402.51+324.787L400.115+324.787L400.115+306.457L405.154+306.457C406.24+306.457+407.15+306.527+407.873+306.68C408.596+306.82+409.252+307.073+409.826+307.443C410.48+307.861+410.986+308.39+411.347+309.031C411.721+309.661+411.909+310.462+411.909+311.442C411.909+312.764+411.579+313.87+410.929+314.767C410.274+315.651+409.377+316.325+408.235+316.776L414.995+324.787ZM409.407+311.613C409.407+311.092+409.315+310.628+409.126+310.221C408.952+309.814+408.654+309.471+408.235+309.191C407.886+308.948+407.474+308.784+407+308.695C406.527+308.6+405.965+308.548+405.323+308.548L402.51+308.548L402.51+315.465L404.924+315.465C405.684+315.465+406.339+315.402+406.907+315.268C407.467+315.128+407.948+314.875+408.341+314.507C408.703+314.163+408.971+313.768+409.139+313.324C409.321+312.873+409.407+312.306+409.407+311.613ZM387.797+318.156L377.857+318.156C377.857+319.001+377.981+319.738+378.23+320.368C378.479+320.991+378.823+321.505+379.259+321.906C379.677+322.301+380.17+322.599+380.743+322.796C381.323+322.993+381.96+323.089+382.651+323.089C383.569+323.089+384.492+322.905+385.421+322.536C386.351+322.161+387.018+321.792+387.411+321.429L387.535+321.429L387.535+323.953C386.769+324.277+385.988+324.557+385.19+324.774C384.392+324.997+383.557+325.111+382.677+325.111C380.438+325.111+378.692+324.494+377.438+323.26C376.179+322.021+375.548+320.267+375.548+317.99C375.548+315.745+376.153+313.96+377.351+312.637C378.561+311.315+380.145+310.653+382.11+310.653C383.93+310.653+385.327+311.193+386.312+312.28C387.304+313.361+387.797+314.901+387.797+316.896L387.797+318.156ZM385.589+316.382C385.576+315.168+385.278+314.227+384.679+313.558C384.093+312.897+383.194+312.56+381.99+312.56C380.775+312.56+379.801+312.93+379.078+313.66C378.361+314.391+377.956+315.295+377.857+316.382L385.589+316.382ZM373.752+324.666C373.322+324.78+372.861+324.876+372.348+324.951C371.85+325.021+371.406+325.06+371.007+325.06C369.629+325.06+368.588+324.684+367.872+323.929C367.153+323.172+366.792+321.964+366.792+320.298L366.792+312.98L365.258+312.98L365.258+311.035L366.792+311.035L366.792+307.087L369.063+307.087L369.063+311.035L373.752+311.035L373.752+312.98L369.063+312.98L369.063+319.25C369.063+319.974+369.08+320.54+369.112+320.947C369.142+321.348+369.256+321.728+369.449+322.078C369.629+322.409+369.874+322.65+370.179+322.809C370.49+322.956+370.964+323.026+371.601+323.026C371.975+323.026+372.355+322.975+372.76+322.866C373.166+322.752+373.453+322.656+373.627+322.586L373.752+322.586L373.752+324.666ZM362.277+324.787L360.007+324.787L360.007+323.26C359.239+323.877+358.509+324.347+357.811+324.679C357.106+325.01+356.333+325.168+355.491+325.168C354.069+325.168+352.972+324.73+352.179+323.853C351.393+322.969+350.994+321.672+350.994+319.961L350.994+311.035L353.264+311.035L353.264+318.867C353.264+319.567+353.303+320.164+353.365+320.667C353.427+321.156+353.564+321.582+353.775+321.932C353.994+322.295+354.275+322.555+354.618+322.72C354.968+322.886+355.466+322.969+356.127+322.969C356.719+322.969+357.356+322.809+358.048+322.498C358.753+322.186+359.402+321.785+360.007+321.302L360.007+311.035L362.277+311.035L362.277+324.787ZM348.169+323.929C347.414+324.297+346.691+324.583+346.004+324.787C345.331+324.997+344.607+325.098+343.847+325.098C342.874+325.098+341.976+324.951+341.165+324.666C340.354+324.373+339.656+323.929+339.075+323.337C338.489+322.746+338.034+321.995+337.71+321.092C337.386+320.19+337.23+319.134+337.23+317.933C337.23+315.682+337.828+313.914+339.038+312.637C340.255+311.359+341.858+310.716+343.847+310.716C344.62+310.716+345.375+310.825+346.118+311.048C346.865+311.269+347.552+311.543+348.169+311.862L348.169+314.437L348.051+314.437C347.358+313.883+346.641+313.463+345.899+313.164C345.169+312.873+344.453+312.726+343.747+312.726C342.463+312.726+341.44+313.164+340.691+314.054C339.955+314.932+339.581+316.222+339.581+317.933C339.581+319.587+339.942+320.864+340.672+321.761C341.401+322.645+342.431+323.089+343.747+323.089C344.208+323.089+344.676+323.026+345.15+322.905C345.624+322.783+346.056+322.625+346.429+322.428C346.76+322.249+347.071+322.072+347.358+321.881C347.652+321.685+347.882+321.519+348.051+321.379L348.169+321.379L348.169+323.929ZM335.646+324.787L333.094+324.787L331.336+319.681L323.553+319.681L321.794+324.787L319.362+324.787L325.91+306.457L329.096+306.457L335.646+324.787ZM330.594+317.583L327.444+308.587L324.283+317.583L330.594+317.583ZM301.949+310.125C301.949+309.344+301.718+308.734+301.256+308.288C300.808+307.837+300.227+307.614+299.516+307.614C298.78+307.614+298.175+307.868+297.707+308.377C297.239+308.878+297.009+309.489+297.009+310.221C297.009+310.838+297.164+311.385+297.477+311.862C297.801+312.337+298.488+312.897+299.542+313.546C300.334+313.26+300.926+312.84+301.331+312.293C301.743+311.733+301.949+311.009+301.949+310.125ZM304.287+320.908L298.518+315.174C298.269+315.295+298.02+315.459+297.769+315.662C297.52+315.861+297.271+316.134+297.022+316.476C296.791+316.802+296.61+317.183+296.467+317.633C296.317+318.086+296.248+318.594+296.248+319.16C296.248+320.361+296.591+321.328+297.271+322.065C297.963+322.796+298.943+323.166+300.209+323.166C300.956+323.166+301.699+322.982+302.428+322.612C303.171+322.231+303.789+321.665+304.287+320.908ZM307.924+313.597L307.924+314.779C307.924+315.568+307.823+316.452+307.624+317.436C307.424+318.423+307.081+319.364+306.595+320.26L311.16+324.787L308.192+324.787L305.422+322.034C304.499+323.197+303.551+324.01+302.585+324.481C301.619+324.94+300.626+325.168+299.604+325.168C297.932+325.168+296.535+324.673+295.426+323.68C294.321+322.682+293.772+321.372+293.772+319.751C293.772+319.001+293.872+318.346+294.084+317.793C294.297+317.246+294.539+316.769+294.82+316.369C295.1+315.981+295.456+315.618+295.874+315.282C296.293+314.938+296.716+314.64+297.14+314.385C296.254+313.794+295.612+313.197+295.22+312.599C294.833+312+294.638+311.245+294.638+310.335C294.638+309.782+294.745+309.261+294.951+308.771C295.169+308.268+295.494+307.811+295.917+307.404C296.323+307.01+296.847+306.693+297.49+306.444C298.145+306.196+298.861+306.076+299.641+306.076C301.031+306.076+302.16+306.437+303.021+307.156C303.881+307.868+304.312+308.778+304.312+309.878C304.312+310.239+304.269+310.653+304.169+311.112C304.076+311.562+303.907+311.969+303.677+312.332C303.415+312.733+303.053+313.114+302.572+313.49C302.098+313.857+301.486+314.168+300.726+314.437L305.211+318.893C305.323+318.563+305.404+318.2+305.46+317.806C305.516+317.412+305.553+317.005+305.559+316.579C305.572+316.115+305.578+315.605+305.572+315.041L305.572+313.597L307.924+313.597ZM282.945+311.035L275.075+329.86L272.648+329.86L275.155+324.126L269.786+311.035L272.249+311.035L276.391+321.232L280.569+311.035L282.945+311.035ZM268.357+323.929C267.603+324.297+266.88+324.583+266.193+324.787C265.52+324.997+264.796+325.098+264.035+325.098C263.062+325.098+262.165+324.951+261.354+324.666C260.537+324.373+259.844+323.929+259.264+323.337C258.678+322.746+258.223+321.995+257.899+321.092C257.575+320.19+257.412+319.134+257.412+317.933C257.412+315.682+258.017+313.914+259.227+312.637C260.442+311.359+262.045+310.716+264.035+310.716C264.809+310.716+265.563+310.825+266.305+311.048C267.054+311.269+267.74+311.543+268.357+311.862L268.357+314.437L268.239+314.437C267.547+313.883+266.829+313.463+266.088+313.164C265.352+312.873+264.64+312.726+263.936+312.726C262.651+312.726+261.629+313.164+260.88+314.054C260.144+314.932+259.77+316.222+259.77+317.933C259.77+319.587+260.131+320.864+260.854+321.761C261.59+322.645+262.62+323.089+263.936+323.089C264.397+323.089+264.865+323.026+265.339+322.905C265.813+322.783+266.243+322.625+266.618+322.428C266.949+322.249+267.26+322.072+267.547+321.881C267.839+321.685+268.071+321.519+268.239+321.379L268.357+321.379L268.357+323.929ZM254.007+324.787L251.736+324.787L251.736+316.96C251.736+316.325+251.699+315.732+251.631+315.185C251.556+314.627+251.425+314.194+251.232+313.883C251.032+313.533+250.738+313.28+250.365+313.114C249.985+312.943+249.491+312.86+248.886+312.86C248.268+312.86+247.62+313.013+246.94+313.324C246.268+313.634+245.618+314.035+245.002+314.518L245.002+324.787L242.731+324.787L242.731+311.035L245.002+311.035L245.002+312.56C245.706+311.963+246.442+311.492+247.197+311.162C247.951+310.825+248.731+310.653+249.53+310.653C250.989+310.653+252.099+311.105+252.859+311.995C253.626+312.891+254.007+314.181+254.007+315.861L254.007+324.787ZM239.287+318.156L229.347+318.156C229.347+319.001+229.471+319.738+229.721+320.368C229.971+320.991+230.313+321.505+230.744+321.906C231.169+322.301+231.66+322.599+232.234+322.796C232.815+322.993+233.45+323.089+234.143+323.089C235.06+323.089+235.982+322.905+236.905+322.536C237.841+322.161+238.502+321.785+238.901+321.429L239.019+321.429L239.019+323.953C238.253+324.277+237.474+324.557+236.675+324.774C235.883+324.997+235.04+325.111+234.167+325.111C231.929+325.111+230.176+324.494+228.922+323.26C227.669+322.021+227.04+320.267+227.04+317.99C227.04+315.745+227.639+313.96+228.836+312.637C230.045+311.315+231.63+310.653+233.6+310.653C235.416+310.653+236.819+311.193+237.798+312.28C238.789+313.361+239.287+314.901+239.287+316.896L239.287+318.156ZM237.074+316.382C237.068+315.168+236.768+314.227+236.169+313.558C235.583+312.897+234.686+312.56+233.476+312.56C232.259+312.56+231.293+312.93+230.564+313.66C229.851+314.391+229.44+315.295+229.347+316.382L237.074+316.382ZM223.521+323.223C223.521+325.557+223.004+327.266+221.969+328.359C220.926+329.453+219.33+330+217.173+330C216.456+330+215.757+329.943+215.07+329.834C214.392+329.74+213.724+329.593+213.063+329.409L213.063+327.044L213.188+327.044C213.555+327.189+214.141+327.368+214.946+327.585C215.75+327.806+216.561+327.915+217.366+327.915C218.139+327.915+218.776+327.819+219.287+327.635C219.793+327.445+220.186+327.184+220.465+326.847C220.752+326.522+220.952+326.141+221.07+325.69C221.195+325.238+221.252+324.73+221.252+324.176L221.252+322.917C220.572+323.477+219.911+323.896+219.287+324.176C218.662+324.443+217.871+324.577+216.905+324.577C215.295+324.577+214.016+323.992+213.063+322.809C212.121+321.615+211.653+319.941+211.653+317.78C211.653+316.605+211.815+315.581+212.134+314.728C212.464+313.87+212.913+313.127+213.473+312.503C213.999+311.919+214.634+311.466+215.383+311.149C216.132+310.819+216.879+310.653+217.615+310.653C218.401+310.653+219.05+310.736+219.574+310.902C220.104+311.053+220.665+311.302+221.252+311.626L221.401+311.035L223.521+311.035L223.521+323.223ZM221.252+321.011L221.252+313.507C220.647+313.234+220.085+313.037+219.561+312.917C219.05+312.796+218.532+312.733+218.014+312.733C216.767+312.733+215.789+313.164+215.07+314.017C214.353+314.868+213.992+316.108+213.992+317.736C213.992+319.274+214.261+320.444+214.791+321.245C215.321+322.039+216.205+322.435+217.435+322.435C218.096+322.435+218.757+322.306+219.418+322.052C220.085+321.792+220.697+321.442+221.252+321.011ZM210.418+313.558L210.299+313.558C209.963+313.477+209.632+313.42+209.308+313.387C208.997+313.35+208.621+313.324+208.186+313.324C207.486+313.324+206.808+313.49+206.158+313.807C205.503+314.118+204.874+314.525+204.269+315.028L204.269+324.787L201.999+324.787L201.999+311.035L204.269+311.035L204.269+313.07C205.173+312.332+205.965+311.81+206.651+311.505C207.344+311.193+208.048+311.035+208.765+311.035C209.158+311.035+209.445+311.048+209.619+311.073C209.801+311.092+210.063+311.123+210.418+311.182L210.418+313.558ZM198.556+318.156L188.621+318.156C188.621+319.001+188.745+319.738+188.994+320.368C189.245+320.991+189.588+321.505+190.018+321.906C190.436+322.301+190.934+322.599+191.503+322.796C192.082+322.993+192.718+323.089+193.411+323.089C194.333+323.089+195.25+322.905+196.179+322.536C197.115+322.161+197.776+321.785+198.17+321.429L198.295+321.429L198.295+323.953C197.527+324.277+196.747+324.557+195.949+324.774C195.151+324.997+194.314+325.111+193.436+325.111C191.196+325.111+189.451+324.494+188.196+323.26C186.936+322.021+186.314+320.267+186.314+317.99C186.314+315.745+186.912+313.96+188.11+312.637C189.32+311.315+190.904+310.653+192.868+310.653C194.689+310.653+196.093+311.193+197.072+312.28C198.063+313.361+198.556+314.901+198.556+316.896L198.556+318.156ZM196.348+316.382C196.342+315.168+196.037+314.227+195.445+313.558C194.857+312.897+193.96+312.56+192.75+312.56C191.533+312.56+190.561+312.93+189.837+313.66C189.12+314.391+188.715+315.295+188.621+316.382L196.348+316.382ZM182.895+324.787L180.625+324.787L180.625+316.96C180.625+316.369+180.595+315.796+180.539+315.251C180.488+314.697+180.382+314.258+180.213+313.927C180.026+313.577+179.758+313.311+179.415+313.127C179.067+312.948+178.567+312.86+177.919+312.86C177.283+312.86+176.646+313.024+176.011+313.35C175.374+313.673+174.738+314.08+174.101+314.582C174.127+314.774+174.146+314.989+174.157+315.251C174.176+315.491+174.183+315.739+174.183+315.988L174.183+324.787L171.912+324.787L171.912+316.96C171.912+316.349+171.888+315.778+171.831+315.238C171.781+314.684+171.676+314.245+171.5+313.914C171.32+313.564+171.052+313.304+170.708+313.127C170.36+312.948+169.861+312.86+169.206+312.86C168.588+312.86+167.965+313.013+167.335+313.324C166.717+313.634+166.094+314.035+165.476+314.518L165.476+324.787L163.206+324.787L163.206+311.035L165.476+311.035L165.476+312.56C166.187+311.963+166.893+311.492+167.59+311.162C168.302+310.825+169.05+310.653+169.848+310.653C170.764+310.653+171.545+310.85+172.181+311.245C172.824+311.639+173.303+312.186+173.616+312.884C174.539+312.096+175.374+311.53+176.129+311.182C176.889+310.832+177.694+310.653+178.554+310.653C180.039+310.653+181.131+311.112+181.829+312.033C182.539+312.943+182.895+314.22+182.895+315.861L182.895+324.787ZM159.583+324.787L147.733+324.787L147.733+306.457L159.583+306.457L159.583+308.625L150.128+308.625L150.128+313.647L159.583+313.647L159.583+315.815L150.128+315.815L150.128+322.625L159.583+322.625L159.583+324.787ZM136.694+313.558L136.575+313.558C136.238+313.477+135.907+313.42+135.583+313.387C135.272+313.35+134.898+313.324+134.461+313.324C133.763+313.324+133.083+313.49+132.435+313.807C131.78+314.118+131.149+314.525+130.544+315.028L130.544+324.787L128.274+324.787L128.274+311.035L130.544+311.035L130.544+313.07C131.448+312.332+132.241+311.81+132.926+311.505C133.619+311.193+134.323+311.035+135.04+311.035C135.435+311.035+135.72+311.048+135.896+311.073C136.076+311.092+136.338+311.123+136.694+311.182L136.694+313.558ZM124.832+318.156L114.896+318.156C114.896+319.001+115.02+319.738+115.271+320.368C115.52+320.991+115.863+321.505+116.293+321.906C116.711+322.301+117.211+322.599+117.778+322.796C118.357+322.993+118.994+323.089+119.686+323.089C120.609+323.089+121.527+322.905+122.456+322.536C123.391+322.161+124.052+321.785+124.445+321.429L124.57+321.429L124.57+323.953C123.802+324.277+123.023+324.557+122.224+324.774C121.426+324.997+120.591+325.111+119.711+325.111C117.473+325.111+115.726+324.494+114.473+323.26C113.213+322.021+112.589+320.267+112.589+317.99C112.589+315.745+113.188+313.96+114.385+312.637C115.595+311.315+117.179+310.653+119.143+310.653C120.965+310.653+122.368+311.193+123.347+312.28C124.338+313.361+124.832+314.901+124.832+316.896L124.832+318.156ZM122.624+316.382C122.617+315.168+122.312+314.227+121.72+313.558C121.134+312.897+120.235+312.56+119.025+312.56C117.81+312.56+116.836+312.93+116.113+313.66C115.396+314.391+114.99+315.295+114.896+316.382L122.624+316.382ZM110.786+324.666C110.362+324.78+109.894+324.876+109.383+324.951C108.885+325.021+108.441+325.06+108.048+325.06C106.67+325.06+105.623+324.684+104.904+323.929C104.188+323.172+103.833+321.964+103.833+320.298L103.833+312.98L102.299+312.98L102.299+311.035L103.833+311.035L103.833+307.087L106.102+307.087L106.102+311.035L110.786+311.035L110.786+312.98L106.102+312.98L106.102+319.25C106.102+319.974+106.115+320.54+106.147+320.947C106.183+321.348+106.297+321.728+106.49+322.078C106.664+322.409+106.907+322.65+107.213+322.809C107.524+322.956+107.999+323.026+108.634+323.026C109.009+323.026+109.396+322.975+109.795+322.866C110.2+322.752+110.488+322.656+110.668+322.586L110.786+322.586L110.786+324.666ZM100.52+320.825C100.52+322.078+100.009+323.109+98.9858+323.916C97.9703+324.717+96.5861+325.124+94.8202+325.124C93.8224+325.124+92.9059+325.003+92.0645+324.767C91.2343+324.52+90.5413+324.253+89.9745+323.966L89.9745+321.366L90.0991+321.366C90.816+321.919+91.6079+322.358+92.4876+322.682C93.3673+323.006+94.2087+323.166+95.0134+323.166C96.0113+323.166+96.7904+323+97.3588+322.669C97.9192+322.345+98.2003+321.825+98.2003+321.118C98.2003+320.578+98.0518+320.171+97.7452+319.891C97.4402+319.611+96.8479+319.37+95.981+319.173C95.6569+319.103+95.2321+319.014+94.7149+318.918C94.1959+318.817+93.7234+318.709+93.2987+318.594C92.114+318.276+91.271+317.806+90.7728+317.189C90.2795+316.566+90.0368+315.802+90.0368+314.901C90.0368+314.334+90.1486+313.8+90.3737+313.304C90.61+312.803+90.9596+312.35+91.4274+311.956C91.8761+311.575+92.4509+311.269+93.1422+311.048C93.8415+310.819+94.6207+310.705+95.4812+310.705C96.2923+310.705+97.1034+310.806+97.9256+311.009C98.7559+311.206+99.4424+311.448+99.99+311.74L99.99+314.214L99.8655+314.214C99.2859+313.774+98.5866+313.413+97.758+313.114C96.9277+312.814+96.1119+312.663+95.3136+312.663C94.4834+312.663+93.7856+312.827+93.2109+313.151C92.644+313.477+92.3567+313.953+92.3567+314.595C92.3567+315.161+92.5307+315.588+92.874+315.872C93.2109+316.159+93.7601+316.395+94.5217+316.579C94.9384+316.675+95.4062+316.776+95.9187+316.872C96.4424+316.973+96.8783+317.062+97.2215+317.145C98.2753+317.386+99.0927+317.812+99.6659+318.41C100.234+319.02+100.52+319.821+100.52+320.825ZM86.6073+308.734L84.0432+308.734L84.0432+306.33L86.6073+306.33L86.6073+308.734ZM86.4636+324.787L84.1932+324.787L84.1932+311.035L86.4636+311.035L86.4636+324.787ZM81.9532+324.787L70.5774+324.787L70.5774+306.457L72.9723+306.457L72.9723+322.625L81.9532+322.625L81.9532+324.787ZM429.639+95.3637C402.005+95.3637+392.561+122.436+381.585+154.975C383.612+159.571+386.681+166.603+387.578+168.422C391.153+175.67+394.969+182.861+399.079+189.899C403.196+196.936+407.611+203.823+412.394+210.46C414.783+213.779+417.266+217.034+419.847+220.219C422.436+223.405+425.118+226.513+427.912+229.539C430.7+232.566+433.601+235.509+436.618+238.351C439.637+241.199+442.775+243.947+446.03+246.592C449.292+249.23+452.678+251.761+456.196+254.176C459.713+256.587+463.368+258.882+467.16+261.043C470.952+263.205+474.887+265.233+478.973+267.114C483.063+269.002+487.298+270.745+491.695+272.334C496.085+273.924+500.639+275.361+505.36+276.626C510.437+277.98+514.571+279.264+519.854+280.058C524.556+280.765+594.115+281.662+622.904+281.636C550.644+280.211+533.631+254.577+509.371+223.602C469.792+173.063+475.037+95.3637+429.639+95.3637ZM432.341+129.194C434.204+129.194+435.852+129.581+437.279+130.357C438.732+131.108+439.949+132.226+440.916+133.727C441.908+135.221+442.631+137.115+443.092+139.386C443.579+141.637+443.784+144.242+443.71+147.205L434.809+147.205C434.86+145.566+434.785+144.166+434.592+143.015C434.423+141.865+434.137+140.911+433.725+140.167C433.339+139.417+432.852+138.87+432.272+138.521C431.691+138.178+431.024+138.005+430.27+138.005C428.966+138.005+427.607+138.655+426.203+139.95C424.824+141.217+423.296+143.321+421.626+146.257L421.626+174.036L412.545+174.036L412.545+130.141L420.571+130.141L420.901+136.537C421.506+135.411+422.18+134.4+422.935+133.51C423.708+132.621+424.557+131.851+425.474+131.222C426.421+130.561+427.463+130.051+428.598+129.708C429.74+129.366+430.987+129.194+432.341+129.194ZM519.367+282.088L519.18+281.165C513.948+281.229+521.133+281.929+505.253+279.78C500.42+279.124+495.237+277.319+490.84+275.729C486.45+274.14+482.209+272.397+478.123+270.509C474.039+268.628+470.104+266.593+466.312+264.438C462.513+262.277+458.136+259.982+454.618+257.571C451.101+255.156+447.713+252.625+444.457+249.98C441.196+247.342+438.06+244.594+435.041+241.746C432.022+238.904+429.122+235.962+426.334+232.934C423.54+229.908+420.858+226.8+418.27+223.615C415.688+220.429+413.206+217.174+410.817+213.855C406.034+207.218+401.617+200.332+397.501+193.294C393.392+186.256+389.581+179.065+386.001+171.811C385.104+169.998+382.035+162.967+380.007+158.37C372.393+180.947+364.048+206.072+348.324+226.99C316.555+269.271+290.093+282.316+188.309+282.316L520.914+282.152L519.367+282.088Z" opacity="1" fill="#ffffff"/>
</g>
</svg>
