<?xml version="1.0" encoding="UTF-8" standalone="no"?> <!-- Created with Vectornator Pro for iOS (http://vectornator.io/) --><!DOCTYPE svg PUBLIC "-//W3C//DTD SVG 1.1//EN" "http://www.w3.org/Graphics/SVG/1.1/DTD/svg11.dtd">
<svg height="100%" style="fill-rule:evenodd;clip-rule:evenodd;stroke-linecap:round;stroke-linejoin:round;" xmlns:xlink="http://www.w3.org/1999/xlink" xmlns="http://www.w3.org/2000/svg" xml:space="preserve" width="100%" xmlns:vectornator="http://vectornator.io" version="1.1" viewBox="0 0 660 220">
<metadata>
<vectornator:setting key="CMYKEnabledKey" value="0"/>
<vectornator:setting key="Units" value="Points"/>
<vectornator:setting key="GridSpacing" value="36"/>
<vectornator:setting key="RulersVisible" value="1"/>
<vectornator:setting key="DynamicGuides" value="1"/>
</metadata>
<defs/>
<g id="Untitled" vectornator:layerName="Untitled">
<path d="M549.802+141.452L549.802+141.922L552.659+141.922L552.659+141.452L549.802+141.452ZM506.943+141.452L506.943+141.922L509.796+141.922L509.796+141.452L506.943+141.452ZM515.514+141.452L515.514+141.922L518.371+141.922L518.371+141.452L515.514+141.452ZM524.085+141.452L524.085+141.922L526.942+141.922L526.942+141.452L524.085+141.452ZM532.661+141.452L532.661+141.922L535.518+141.922L535.518+141.452L532.661+141.452ZM541.231+141.452L541.231+141.922L544.088+141.922L544.088+141.452L541.231+141.452ZM446.932+141.452L446.932+141.922L449.789+141.922L449.789+141.452L446.932+141.452ZM404.069+141.452L404.069+141.922L406.926+141.922L406.926+141.452L404.069+141.452ZM412.64+141.452L412.64+141.922L415.497+141.922L415.497+141.452L412.64+141.452ZM421.215+141.452L421.215+141.922L424.072+141.922L424.072+141.452L421.215+141.452ZM429.786+141.452L429.786+141.922L432.643+141.922L432.643+141.452L429.786+141.452ZM438.357+141.452L438.357+141.922L441.214+141.922L441.214+141.452L438.357+141.452ZM352.629+141.452L352.629+141.922L355.486+141.922L355.486+141.452L352.629+141.452ZM361.205+141.452L361.205+141.922L364.062+141.922L364.062+141.452L361.205+141.452ZM369.775+141.452L369.775+141.922L372.632+141.922L372.632+141.452L369.775+141.452ZM378.351+141.452L378.351+141.922L381.208+141.922L381.208+141.452L378.351+141.452ZM386.922+141.452L386.922+141.922L389.779+141.922L389.779+141.452L386.922+141.452ZM498.367+141.452L498.367+141.922L501.224+141.922L501.224+141.452L498.367+141.452ZM455.504+141.452L455.504+141.922L458.361+141.922L458.361+141.452L455.504+141.452ZM464.079+141.452L464.079+141.922L466.936+141.922L466.936+141.452L464.079+141.452ZM472.65+141.452L472.65+141.922L475.507+141.922L475.507+141.452L472.65+141.452ZM481.221+141.452L481.221+141.922L484.078+141.922L484.078+141.452L481.221+141.452ZM489.796+141.452L489.796+141.922L492.653+141.922L492.653+141.452L489.796+141.452ZM549.802+94.3964L549.802+94.8703L552.659+94.8703L552.659+94.3964L549.802+94.3964ZM506.943+94.3964L506.943+94.8703L509.796+94.8703L509.796+94.3964L506.943+94.3964ZM515.514+94.3964L515.514+94.8703L518.371+94.8703L518.371+94.3964L515.514+94.3964ZM524.085+94.3964L524.085+94.8703L526.942+94.8703L526.942+94.3964L524.085+94.3964ZM532.661+94.3964L532.661+94.8703L535.518+94.8703L535.518+94.3964L532.661+94.3964ZM541.231+94.3964L541.231+94.8703L544.088+94.8703L544.088+94.3964L541.231+94.3964ZM446.932+94.3964L446.932+94.8703L449.789+94.8703L449.789+94.3964L446.932+94.3964ZM361.205+94.3964L361.205+94.8703L364.062+94.8703L364.062+94.3964L361.205+94.3964ZM369.775+94.3964L369.775+94.8703L372.632+94.8703L372.632+94.3964L369.775+94.3964ZM378.351+94.3964L378.351+94.8703L381.208+94.8703L381.208+94.3964L378.351+94.3964ZM498.367+94.3964L498.367+94.8703L501.224+94.8703L501.224+94.3964L498.367+94.3964ZM455.504+94.3964L455.504+94.8703L458.361+94.8703L458.361+94.3964L455.504+94.3964ZM472.65+94.3964L472.65+94.8703L475.507+94.8703L475.507+94.3964L472.65+94.3964ZM489.796+94.3964L489.796+94.8703L492.653+94.8703L492.653+94.3964L489.796+94.3964ZM549.802+47.3444L549.802+47.815L552.659+47.815L552.659+47.3444L549.802+47.3444ZM506.943+47.3444L506.943+47.815L509.796+47.815L509.796+47.3444L506.943+47.3444ZM515.514+47.3444L515.514+47.815L518.371+47.815L518.371+47.3444L515.514+47.3444ZM524.085+47.3444L524.085+47.815L526.942+47.815L526.942+47.3444L524.085+47.3444ZM532.661+47.3444L532.661+47.815L535.518+47.815L535.518+47.3444L532.661+47.3444ZM541.231+47.3444L541.231+47.815L544.088+47.815L544.088+47.3444L541.231+47.3444ZM446.932+47.3444L446.932+47.815L449.789+47.815L449.789+47.3444L446.932+47.3444ZM404.069+47.3444L404.069+47.815L406.926+47.815L406.926+47.3444L404.069+47.3444ZM412.64+47.3444L412.64+47.815L415.497+47.815L415.497+47.3444L412.64+47.3444ZM421.215+47.3444L421.215+47.815L424.072+47.815L424.072+47.3444L421.215+47.3444ZM429.786+47.3444L429.786+47.815L432.643+47.815L432.643+47.3444L429.786+47.3444ZM438.357+47.3444L438.357+47.815L441.214+47.815L441.214+47.3444L438.357+47.3444ZM395.494+47.3444L395.494+47.815L398.35+47.815L398.35+47.3444L395.494+47.3444ZM352.629+47.3444L352.629+47.815L355.486+47.815L355.486+47.3444L352.629+47.3444ZM361.205+47.3444L361.205+47.815L364.062+47.815L364.062+47.3444L361.205+47.3444ZM369.775+47.3444L369.775+47.815L372.632+47.815L372.632+47.3444L369.775+47.3444ZM378.351+47.3444L378.351+47.815L381.208+47.815L381.208+47.3444L378.351+47.3444ZM386.922+47.3444L386.922+47.815L389.779+47.815L389.779+47.3444L386.922+47.3444ZM498.367+47.3444L498.367+47.815L501.224+47.815L501.224+47.3444L498.367+47.3444ZM455.504+47.3444L455.504+47.815L458.361+47.815L458.361+47.3444L455.504+47.3444ZM464.079+47.3444L464.079+47.815L466.936+47.815L466.936+47.3444L464.079+47.3444ZM472.65+47.3444L472.65+47.815L475.507+47.815L475.507+47.3444L472.65+47.3444ZM481.221+47.3444L481.221+47.815L484.078+47.815L484.078+47.3444L481.221+47.3444ZM489.796+47.3444L489.796+47.815L492.653+47.815L492.653+47.3444L489.796+47.3444ZM344.059+141.452L344.059+141.922L346.915+141.922L346.915+141.452L344.059+141.452ZM301.194+141.452L301.194+141.922L304.051+141.922L304.051+141.452L301.194+141.452ZM309.77+141.452L309.77+141.922L312.627+141.922L312.627+141.452L309.77+141.452ZM318.34+141.452L318.34+141.922L321.197+141.922L321.197+141.452L318.34+141.452ZM326.911+141.452L326.911+141.922L329.768+141.922L329.768+141.452L326.911+141.452ZM335.487+141.452L335.487+141.922L338.344+141.922L338.344+141.452L335.487+141.452ZM241.184+141.452L241.184+141.922L244.041+141.922L244.041+141.452L241.184+141.452ZM198.319+141.452L198.319+141.922L201.176+141.922L201.176+141.452L198.319+141.452ZM206.895+141.452L206.895+141.922L209.752+141.922L209.752+141.452L206.895+141.452ZM215.466+141.452L215.466+141.922L218.323+141.922L218.323+141.452L215.466+141.452ZM224.041+141.452L224.041+141.922L226.899+141.922L226.899+141.452L224.041+141.452ZM232.613+141.452L232.613+141.922L235.47+141.922L235.47+141.452L232.613+141.452ZM189.749+141.452L189.749+141.922L192.606+141.922L192.606+141.452L189.749+141.452ZM146.884+141.452L146.884+141.922L149.741+141.922L149.741+141.452L146.884+141.452ZM155.46+141.452L155.46+141.922L158.312+141.922L158.312+141.452L155.46+141.452ZM164.031+141.452L164.031+141.922L166.888+141.922L166.888+141.452L164.031+141.452ZM172.603+141.452L172.603+141.922L175.459+141.922L175.459+141.452L172.603+141.452ZM181.178+141.452L181.178+141.922L184.035+141.922L184.035+141.452L181.178+141.452ZM292.624+141.452L292.624+141.922L295.48+141.922L295.48+141.452L292.624+141.452ZM249.759+141.452L249.759+141.922L252.616+141.922L252.616+141.452L249.759+141.452ZM258.33+141.452L258.33+141.922L261.187+141.922L261.187+141.452L258.33+141.452ZM266.905+141.452L266.905+141.922L269.762+141.922L269.762+141.452L266.905+141.452ZM275.476+141.452L275.476+141.922L278.333+141.922L278.333+141.452L275.476+141.452ZM284.048+141.452L284.048+141.922L286.905+141.922L286.905+141.452L284.048+141.452ZM344.059+94.3964L344.059+94.8703L346.915+94.8703L346.915+94.3964L344.059+94.3964ZM301.194+94.3964L301.194+94.8703L304.051+94.8703L304.051+94.3964L301.194+94.3964ZM309.77+94.3964L309.77+94.8703L312.627+94.8703L312.627+94.3964L309.77+94.3964ZM318.34+94.3964L318.34+94.8703L321.197+94.8703L321.197+94.3964L318.34+94.3964ZM326.911+94.3964L326.911+94.8703L329.768+94.8703L329.768+94.3964L326.911+94.3964ZM335.487+94.3964L335.487+94.8703L338.344+94.8703L338.344+94.3964L335.487+94.3964ZM241.184+94.3964L241.184+94.8703L244.041+94.8703L244.041+94.3964L241.184+94.3964ZM198.319+94.3964L198.319+94.8703L201.176+94.8703L201.176+94.3964L198.319+94.3964ZM215.466+94.3964L215.466+94.8703L218.323+94.8703L218.323+94.3964L215.466+94.3964ZM224.041+94.3964L224.041+94.8703L226.899+94.8703L226.899+94.3964L224.041+94.3964ZM232.613+94.3964L232.613+94.8703L235.47+94.8703L235.47+94.3964L232.613+94.3964ZM189.749+94.3964L189.749+94.8703L192.606+94.8703L192.606+94.3964L189.749+94.3964ZM146.884+94.3964L146.884+94.8703L149.741+94.8703L149.741+94.3964L146.884+94.3964ZM155.46+94.3964L155.46+94.8703L158.312+94.8703L158.312+94.3964L155.46+94.3964ZM164.031+94.3964L164.031+94.8703L166.888+94.8703L166.888+94.3964L164.031+94.3964ZM172.603+94.3964L172.603+94.8703L175.459+94.8703L175.459+94.3964L172.603+94.3964ZM181.178+94.3964L181.178+94.8703L184.035+94.8703L184.035+94.3964L181.178+94.3964ZM293.871+94.3964L294.001+94.8703L295.48+94.8703L295.48+94.3964L293.871+94.3964ZM249.759+94.3964L249.759+94.8703L252.616+94.8703L252.616+94.3964L249.759+94.3964ZM258.33+94.3964L258.33+94.8703L261.187+94.8703L261.187+94.3964L258.33+94.3964ZM266.905+94.3964L266.905+94.8703L269.762+94.8703L269.762+94.3964L266.905+94.3964ZM277.557+94.3964L277.312+94.8703L278.333+94.8703L278.333+94.3964L277.557+94.3964ZM284.048+94.3964L284.048+94.8703L286.905+94.8703L286.905+94.3964L284.048+94.3964ZM344.059+47.3444L344.059+47.815L346.915+47.815L346.915+47.3444L344.059+47.3444ZM301.194+47.3444L301.194+47.815L304.051+47.815L304.051+47.3444L301.194+47.3444ZM309.77+47.3444L309.77+47.815L312.622+47.815L312.622+47.3444L309.77+47.3444ZM318.34+47.3444L318.34+47.815L321.197+47.815L321.197+47.3444L318.34+47.3444ZM326.911+47.3444L326.911+47.815L329.768+47.815L329.768+47.3444L326.911+47.3444ZM335.487+47.3444L335.487+47.815L338.344+47.815L338.344+47.3444L335.487+47.3444ZM241.184+47.3444L241.184+47.815L244.041+47.815L244.041+47.3444L241.184+47.3444ZM198.319+47.3444L198.319+47.815L201.176+47.815L201.176+47.3444L198.319+47.3444ZM206.895+47.3444L206.895+47.815L209.752+47.815L209.752+47.3444L206.895+47.3444ZM215.466+47.3444L215.466+47.815L218.323+47.815L218.323+47.3444L215.466+47.3444ZM224.041+47.3444L224.041+47.815L226.899+47.815L226.899+47.3444L224.041+47.3444ZM232.613+47.3444L232.613+47.815L235.47+47.815L235.47+47.3444L232.613+47.3444ZM189.749+47.3444L189.749+47.815L192.606+47.815L192.606+47.3444L189.749+47.3444ZM146.884+47.3444L146.884+47.815L149.741+47.815L149.741+47.3444L146.884+47.3444ZM155.46+47.3444L155.46+47.815L158.312+47.815L158.312+47.3444L155.46+47.3444ZM164.031+47.3444L164.031+47.815L166.888+47.815L166.888+47.3444L164.031+47.3444ZM172.603+47.3444L172.603+47.815L175.459+47.815L175.459+47.3444L172.603+47.3444ZM181.178+47.3444L181.178+47.815L184.035+47.815L184.035+47.3444L181.178+47.3444ZM292.624+47.3444L292.624+47.815L295.48+47.815L295.48+47.3444L292.624+47.3444ZM249.759+47.3444L249.759+47.815L252.616+47.815L252.616+47.3444L249.759+47.3444ZM258.33+47.3444L258.33+47.815L261.187+47.815L261.187+47.3444L258.33+47.3444ZM266.905+47.3444L266.905+47.815L269.762+47.815L269.762+47.3444L266.905+47.3444ZM275.476+47.3444L275.476+47.815L278.333+47.815L278.333+47.3444L275.476+47.3444ZM284.048+47.3444L284.048+47.815L286.905+47.815L286.905+47.3444L284.048+47.3444ZM349.518+144.383L350.03+144.383L350.03+147.002L349.518+147.002L349.518+144.383ZM349.518+89.3969L350.03+89.3969L350.03+92.0149L349.518+92.0149L349.518+89.3969ZM349.518+50.1195L350.03+50.1195L350.03+52.7374L349.518+52.7374L349.518+50.1195ZM349.518+57.9733L350.03+57.9733L350.03+60.5912L349.518+60.5912L349.518+57.9733ZM349.518+65.8314L350.03+65.8314L350.03+68.4493L349.518+68.4493L349.518+65.8314ZM349.518+73.6851L350.03+73.6851L350.03+76.303L349.518+76.303L349.518+73.6851ZM349.518+81.5388L350.03+81.5388L350.03+84.1568L349.518+84.1568L349.518+81.5388ZM349.518+42.2614L350.03+42.2614L350.03+44.8793L349.518+44.8793L349.518+42.2614ZM349.518+2.98292L350.03+2.98292L350.03+5.60084L349.518+5.60084L349.518+2.98292ZM349.518+10.841L350.03+10.841L350.03+13.4589L349.518+13.4589L349.518+10.841ZM349.518+18.6947L350.03+18.6947L350.03+21.3127L349.518+21.3127L349.518+18.6947ZM349.518+26.5529L350.03+26.5529L350.03+29.1708L349.518+29.1708L349.518+26.5529ZM349.518+34.4066L350.03+34.4066L350.03+37.0245L349.518+37.0245L349.518+34.4066ZM349.518+136.529L350.03+136.529L350.03+139.147L349.518+139.147L349.518+136.529ZM349.518+97.2518L350.03+97.2518L350.03+99.8697L349.518+99.8697L349.518+97.2518ZM349.518+105.11L350.03+105.11L350.03+107.728L349.518+107.728L349.518+105.11ZM349.518+112.964L350.03+112.964L350.03+115.582L349.518+115.582L349.518+112.964ZM349.518+120.817L350.03+120.817L350.03+123.435L349.518+123.435L349.518+120.817ZM349.518+128.675L350.03+128.675L350.03+131.293L349.518+131.293L349.518+128.675ZM503.568+144.383L504.081+144.383L504.081+147.002L503.568+147.002L503.568+144.383ZM503.568+152.242L504.081+152.242L504.081+154.86L503.568+154.86L503.568+152.242ZM503.568+160.096L504.081+160.096L504.081+162.714L503.568+162.714L503.568+160.096ZM503.568+167.954L504.081+167.954L504.081+170.572L503.568+170.572L503.568+167.954ZM503.568+175.808L504.081+175.808L504.081+178.219L503.568+177.981L503.568+175.808ZM503.568+89.3969L504.081+89.3969L504.081+92.0149L503.568+92.0149L503.568+89.3969ZM503.568+50.1195L504.081+50.1195L504.081+52.7374L503.568+52.7374L503.568+50.1195ZM503.568+57.9733L504.081+57.9733L504.081+60.5912L503.568+60.5912L503.568+57.9733ZM503.568+65.8314L504.081+65.8314L504.081+68.4493L503.568+68.4493L503.568+65.8314ZM503.568+73.6851L504.081+73.6851L504.081+76.303L503.568+76.303L503.568+73.6851ZM503.568+81.5388L504.081+81.5388L504.081+84.1568L503.568+84.1568L503.568+81.5388ZM503.568+42.2614L504.081+42.2614L504.081+44.8793L503.568+44.8793L503.568+42.2614ZM503.568+2.98292L504.081+2.98292L504.081+5.60084L503.568+5.60084L503.568+2.98292ZM503.568+10.841L504.081+10.841L504.081+13.4589L503.568+13.4589L503.568+10.841ZM503.568+18.6947L504.081+18.6947L504.081+21.3127L503.568+21.3127L503.568+18.6947ZM503.568+26.5529L504.081+26.5529L504.081+29.1708L503.568+29.1708L503.568+26.5529ZM503.568+34.4066L504.081+34.4066L504.081+37.0245L503.568+37.0245L503.568+34.4066ZM503.568+136.529L504.081+136.529L504.081+139.147L503.568+139.147L503.568+136.529ZM503.568+97.2518L504.081+97.2518L504.081+99.8697L503.568+99.8697L503.568+97.2518ZM503.568+105.11L504.081+105.11L504.081+107.728L503.568+107.728L503.568+105.11ZM503.568+112.964L504.081+112.964L504.081+115.582L503.568+115.582L503.568+112.964ZM503.568+120.817L504.081+120.817L504.081+123.435L503.568+123.435L503.568+120.817ZM503.568+128.675L504.081+128.675L504.081+131.293L503.568+131.293L503.568+128.675ZM452.216+89.3969L452.73+89.3969L452.73+92.0149L452.216+92.0149L452.216+89.3969ZM452.216+50.1195L452.73+50.1195L452.73+52.7374L452.216+52.7374L452.216+50.1195ZM452.216+57.9733L452.73+57.9733L452.73+60.5912L452.216+60.5912L452.216+57.9733ZM452.216+65.8314L452.73+65.8314L452.73+68.4493L452.216+68.4493L452.216+65.8314ZM452.216+73.6851L452.73+73.6851L452.73+76.303L452.216+76.303L452.216+73.6851ZM452.216+81.5388L452.73+81.5388L452.73+84.1568L452.216+84.1568L452.216+81.5388ZM452.216+42.2614L452.73+42.2614L452.73+44.8793L452.216+44.8793L452.216+42.2614ZM452.216+2.98292L452.73+2.98292L452.73+5.60084L452.216+5.60084L452.216+2.98292ZM452.216+10.841L452.73+10.841L452.73+13.4589L452.216+13.4589L452.216+10.841ZM452.216+18.6947L452.73+18.6947L452.73+21.3127L452.216+21.3127L452.216+18.6947ZM452.216+26.5529L452.73+26.5529L452.73+29.1708L452.216+29.1708L452.216+26.5529ZM452.216+34.4066L452.73+34.4066L452.73+37.0245L452.216+37.0245L452.216+34.4066ZM452.216+97.2518L452.73+97.2518L452.73+99.8697L452.216+99.8697L452.216+97.2518ZM452.216+105.11L452.73+105.11L452.73+107.728L452.216+107.728L452.216+105.11ZM452.216+112.964L452.73+112.964L452.73+115.582L452.216+115.582L452.216+112.964ZM400.865+50.1195L401.383+50.1195L401.383+52.7374L400.865+52.7374L400.865+50.1195ZM400.865+57.9733L401.383+57.9733L401.383+60.5912L400.865+60.5912L400.865+57.9733ZM400.865+42.2614L401.383+42.2614L401.383+44.8793L400.865+44.8793L400.865+42.2614ZM400.865+2.98292L401.383+2.98292L401.383+5.60084L400.865+5.60084L400.865+2.98292ZM400.865+10.841L401.383+10.841L401.383+13.4589L400.865+13.4589L400.865+10.841ZM400.865+18.6947L401.383+18.6947L401.383+21.3127L400.865+21.3127L400.865+18.6947ZM400.865+26.5529L401.383+26.5529L401.383+29.1708L400.865+29.1708L400.865+26.5529ZM400.865+34.4066L401.383+34.4066L401.383+37.0245L400.865+37.0245L400.865+34.4066ZM298.166+144.383L298.679+144.383L298.679+147.002L298.166+147.002L298.166+144.383ZM298.166+152.242L298.679+152.242L298.679+154.86L298.166+154.86L298.166+152.242ZM298.166+160.096L298.679+160.096L298.679+162.714L298.166+162.714L298.166+160.096ZM298.166+167.954L298.679+167.954L298.679+170.572L298.166+170.572L298.166+167.954ZM298.166+175.808L298.679+175.808L298.679+178.426L298.166+178.426L298.166+175.808ZM298.166+89.3969L298.679+89.3969L298.679+92.0149L298.166+92.0149L298.166+89.3969ZM298.166+50.1195L298.679+50.1195L298.679+52.7374L298.166+52.7374L298.166+50.1195ZM298.166+57.9733L298.679+57.9733L298.679+60.5912L298.166+60.5912L298.166+57.9733ZM298.166+65.8314L298.679+65.8314L298.679+68.4493L298.166+68.4493L298.166+65.8314ZM298.166+73.6851L298.679+73.6851L298.679+76.303L298.166+76.303L298.166+73.6851ZM298.166+81.5388L298.679+81.5388L298.679+84.1568L298.166+84.1568L298.166+81.5388ZM298.166+42.2614L298.679+42.2614L298.679+44.8793L298.166+44.8793L298.166+42.2614ZM298.166+2.98292L298.679+2.98292L298.679+5.60084L298.166+5.60084L298.166+2.98292ZM298.166+10.841L298.679+10.841L298.679+13.4589L298.166+13.4589L298.166+10.841ZM298.166+18.6947L298.679+18.6947L298.679+21.3127L298.166+21.3127L298.166+18.6947ZM298.166+26.5529L298.679+26.5529L298.679+29.1708L298.166+29.1708L298.166+26.5529ZM298.166+34.4066L298.679+34.4066L298.679+37.0245L298.166+37.0245L298.166+34.4066ZM298.166+136.529L298.679+136.529L298.679+139.147L298.166+139.147L298.166+136.529ZM298.166+97.2518L298.679+97.2518L298.679+99.8697L298.166+99.8697L298.166+97.2518ZM298.166+105.11L298.679+105.11L298.679+107.728L298.166+107.728L298.166+105.11ZM298.166+112.964L298.679+112.964L298.679+115.582L298.166+115.582L298.166+112.964ZM298.166+120.817L298.679+120.817L298.679+123.435L298.166+123.435L298.166+120.817ZM298.166+128.675L298.679+128.675L298.679+131.293L298.166+131.293L298.166+128.675ZM246.815+183.661L247.327+183.661L247.327+186.279L246.815+186.279L246.815+183.661ZM246.815+144.383L247.327+144.383L247.327+147.002L246.815+147.002L246.815+144.383ZM246.815+152.242L247.327+152.242L247.327+154.86L246.815+154.86L246.815+152.242ZM246.815+160.096L247.327+160.096L247.327+162.714L246.815+162.714L246.815+160.096ZM246.815+167.954L247.327+167.954L247.327+170.572L246.815+170.572L246.815+167.954ZM246.815+175.808L247.327+175.808L247.327+178.426L246.815+178.426L246.815+175.808ZM246.815+89.3969L247.327+89.3969L247.327+92.0149L246.815+92.0149L246.815+89.3969ZM246.815+50.1195L247.327+50.1195L247.327+52.7374L246.815+52.7374L246.815+50.1195ZM246.815+57.9733L247.327+57.9733L247.327+60.5912L246.815+60.5912L246.815+57.9733ZM246.815+65.8314L247.327+65.8314L247.327+68.4493L246.815+68.4493L246.815+65.8314ZM246.815+73.6851L247.327+73.6851L247.327+76.303L246.815+76.303L246.815+73.6851ZM246.815+81.5388L247.327+81.5388L247.327+84.1568L246.815+84.1568L246.815+81.5388ZM246.815+42.2614L247.327+42.2614L247.327+44.8793L246.815+44.8793L246.815+42.2614ZM246.815+2.98292L247.327+2.98292L247.327+5.60084L246.815+5.60084L246.815+2.98292ZM246.815+10.841L247.327+10.841L247.327+13.4589L246.815+13.4589L246.815+10.841ZM246.815+18.6947L247.327+18.6947L247.327+21.3127L246.815+21.3127L246.815+18.6947ZM246.815+26.5529L247.327+26.5529L247.327+29.1708L246.815+29.1708L246.815+26.5529ZM246.815+34.4066L247.327+34.4066L247.327+37.0245L246.815+37.0245L246.815+34.4066ZM246.815+136.529L247.327+136.529L247.327+139.147L246.815+139.147L246.815+136.529ZM246.815+97.2518L247.327+97.2518L247.327+99.8697L246.815+99.8697L246.815+97.2518ZM246.815+105.11L247.327+105.11L247.327+107.728L246.815+107.728L246.815+105.11ZM246.815+112.964L247.327+112.964L247.327+115.582L246.815+115.582L246.815+112.964ZM246.815+120.817L247.327+120.817L247.327+122.644L246.791+123.66L246.815+120.817ZM246.815+128.675L247.327+128.675L247.327+131.293L246.815+131.293L246.815+128.675ZM195.463+183.661L195.981+183.661L195.981+186.279L195.463+186.279L195.463+183.661ZM195.463+144.383L195.981+144.383L195.981+147.002L195.463+147.002L195.463+144.383ZM195.463+152.242L195.981+152.242L195.981+154.86L195.463+154.86L195.463+152.242ZM195.463+160.096L195.981+160.096L195.981+162.714L195.463+162.714L195.463+160.096ZM195.463+167.954L195.981+167.954L195.981+170.572L195.463+170.572L195.463+167.954ZM195.463+175.808L195.981+175.808L195.981+178.426L195.463+178.426L195.463+175.808ZM195.463+89.3969L195.981+89.3969L195.981+92.0149L195.463+92.0149L195.463+89.3969ZM195.463+50.1195L195.981+50.1195L195.981+52.7374L195.463+52.7374L195.463+50.1195ZM195.463+57.9733L195.981+57.9733L195.981+60.5912L195.463+60.5912L195.463+57.9733ZM195.463+65.8314L195.981+65.8314L195.981+68.4493L195.463+68.4493L195.463+65.8314ZM195.463+73.6851L195.981+73.6851L195.981+76.303L195.463+76.303L195.463+73.6851ZM195.463+81.5388L195.981+81.5388L195.981+84.1568L195.463+84.1568L195.463+81.5388ZM195.463+42.2614L195.981+42.2614L195.981+44.8793L195.463+44.8793L195.463+42.2614ZM195.463+2.98292L195.981+2.98292L195.981+5.60084L195.463+5.60084L195.463+2.98292ZM195.463+10.841L195.981+10.841L195.981+13.4589L195.463+13.4589L195.463+10.841ZM195.463+18.6947L195.981+18.6947L195.981+21.3127L195.463+21.3127L195.463+18.6947ZM195.463+26.5529L195.981+26.5529L195.981+29.1708L195.463+29.1708L195.463+26.5529ZM195.463+34.4066L195.981+34.4066L195.981+37.0245L195.463+37.0245L195.463+34.4066ZM195.463+136.529L195.981+136.529L195.981+139.147L195.463+139.147L195.463+136.529ZM195.463+97.2518L195.981+97.2518L195.981+99.8697L195.463+99.8697L195.463+97.2518ZM195.463+105.11L195.981+105.11L195.981+107.728L195.463+107.728L195.463+105.11ZM195.463+112.964L195.981+112.964L195.981+115.582L195.463+115.582L195.463+112.964ZM195.463+120.817L195.981+120.817L195.981+123.435L195.463+123.435L195.463+120.817ZM195.463+128.675L195.981+128.675L195.981+131.293L195.463+131.293L195.463+128.675ZM144.028+0.365003L144.028+188.902L555.521+188.902L555.521+0.365003L144.028+0.365003ZM144.287+0.601437L555.263+0.601437L555.263+187.017L144.287+187.017L144.287+0.601437ZM316.228+22.5197C279.86+22.5197+270.701+79.4588+252.279+113.446C232.451+150.027+217.444+186.072+144.522+187.614C153.075+187.614+158.668+188.525+166.999+187.801C220.958+181.29+237.393+146.049+254.336+113.446C274.598+74.4649+282.36+24.4056+316.228+24.4056C350.622+24.4056+355.893+70.4404+374.963+105.842L375.924+103.259C357.502+69.2713+352.601+22.5197+316.228+22.5197ZM352.555+116.094L352.394+112.264C351.82+112.917+351.219+113.522+350.59+114.077C349.962+114.615+349.273+115.086+348.514+115.488C347.762+115.895+346.938+116.2+346.041+116.412C345.158+116.64+344.192+116.755+343.133+116.755C341.733+116.755+340.503+116.535+339.444+116.094C338.381+115.653+337.494+115.039+336.777+114.251C336.061+113.464+335.51+112.515+335.136+111.4C334.775+110.29+334.595+109.062+334.595+107.719C334.595+106.334+334.863+105.059+335.404+103.89C335.959+102.716+336.796+101.712+337.909+100.865C339.037+100.022+340.438+99.3611+342.107+98.8785C343.795+98.3992+345.769+98.1573+348.034+98.1573L351.611+98.1573L351.611+96.4037C351.611+95.6544+351.514+94.9852+351.316+94.3877C351.122+93.7739+350.798+93.2566+350.35+92.8325C349.916+92.414+349.351+92.0875+348.653+91.8544C347.951+91.6256+347.091+91.5117+346.065+91.5117C344.451+91.5117+342.851+91.7101+341.275+92.1125C339.713+92.4985+338.196+93.0451+336.721+93.7565L336.721+88.1433C338.035+87.5837+339.541+87.1271+341.248+86.7584C342.972+86.3941+344.756+86.2119+346.605+86.2119C348.635+86.2119+350.374+86.4233+351.829+86.8474C353.281+87.2497+354.478+87.8635+355.412+88.6899C356.36+89.5162+357.063+90.5498+357.511+91.7991C357.96+93.0278+358.186+94.4636+358.186+96.1163L358.186+116.094L352.555+116.094ZM351.611+103.17L347.599+103.17C346.489+103.17+345.546+103.284+344.775+103.512C344.003+103.746+343.373+104.063+342.888+104.466C342.403+104.868+342.047+105.339+341.811+105.877C341.598+106.393+341.488+106.948+341.488+107.546C341.488+108.735+341.848+109.646+342.565+110.277C343.286+110.892+344.261+111.201+345.5+111.201C346.416+111.201+347.368+110.846+348.357+110.133C349.342+109.426+350.428+108.41+351.611+107.084L351.611+103.17ZM477.195+116.094L477.195+97.0349C477.195+93.8325+476.08+92.2318+473.856+92.2318C472.743+92.2318+471.675+92.71+470.652+93.6676C469.645+94.6295+468.577+95.9342+467.449+97.5858L467.449+116.094L460.876+116.094L460.876+86.8474L466.556+86.8474L466.719+91.1635C467.278+90.4142+467.851+89.7364+468.443+89.1215C469.054+88.5077+469.709+87.9871+470.408+87.5675C471.11+87.1271+471.864+86.7877+472.673+86.5589C473.477+86.33+474.389+86.2119+475.391+86.2119C476.792+86.2119+478.013+86.4613+479.053+86.9612C480.093+87.4406+480.966+88.1303+481.665+89.0326C482.368+89.9186+482.885+90.9901+483.227+92.2567C483.588+93.506+483.763+94.9082+483.763+96.4634L483.763+116.094L477.195+116.094ZM294.542+99.2255C294.542+99.7038+294.523+100.326+294.486+101.097C294.467+101.864+294.431+102.585+294.38+103.254L276.392+103.254C276.392+104.542+276.572+105.673+276.928+106.652C277.307+107.63+277.825+108.457+278.49+109.13C279.174+109.782+279.979+110.277+280.913+110.626C281.866+110.973+282.915+111.142+284.066+111.142C285.392+111.142+286.813+111.035+288.319+110.828C289.845+110.595+291.426+110.231+293.058+109.731L293.058+115.319C292.36+115.526+291.596+115.721+290.769+115.895C289.946+116.064+289.1+116.221+288.241+116.353C287.376+116.488+286.507+116.586+285.629+116.64C284.745+116.717+283.895+116.755+283.067+116.755C280.988+116.755+279.12+116.442+277.469+115.806C275.815+115.175+274.418+114.243+273.267+113.015C272.12+111.769+271.237+110.231+270.627+108.41C270.017+106.584+269.711+104.474+269.711+102.077C269.711+99.6951+270.017+97.5348+270.627+95.5991C271.237+93.6416+272.102+91.9682+273.211+90.5877C274.326+89.1898+275.67+88.114+277.251+87.3635C278.851+86.5968+280.627+86.2119+282.582+86.2119C284.524+86.2119+286.239+86.5383+287.727+87.1901C289.216+87.8256+290.464+88.7191+291.472+89.8676C292.476+91.0193+293.238+92.3923+293.761+93.9854C294.278+95.5784+294.542+97.3234+294.542+99.2255ZM287.861+98.217C287.88+97.0653+287.746+96.0697+287.459+95.2216C287.172+94.3584+286.775+93.6502+286.271+93.0917C285.79+92.5365+285.213+92.1255+284.551+91.8544C283.904+91.5876+283.202+91.452+282.448+91.452C280.797+91.452+279.443+92.0496+278.384+93.2349C277.326+94.4083+276.697+96.0697+276.499+98.217L287.861+98.217ZM206.904+116.094L206.904+78.4676L213.635+78.4676L213.635+110.019L228.498+110.019L228.498+116.094L206.904+116.094ZM554.865+216.526L552.646+216.526L548.633+212.515L547.542+213.468L547.542+216.526L545.859+216.526L545.859+203.762L547.542+203.762L547.542+211.951L552.401+207.364L554.523+207.364L549.877+211.595L554.865+216.526ZM544.185+209.045L544.093+209.045C543.843+208.99+543.598+208.952+543.358+208.931C543.127+208.906+542.849+208.888+542.526+208.888C542.008+208.888+541.508+208.999+541.023+209.211C540.538+209.418+540.076+209.689+539.628+210.024L539.628+216.526L537.945+216.526L537.945+207.364L539.628+207.364L539.628+208.719C540.298+208.228+540.885+207.88+541.389+207.677C541.901+207.469+542.424+207.364+542.956+207.364C543.252+207.364+543.46+207.372+543.594+207.389C543.724+207.402+543.923+207.422+544.185+207.461L544.185+209.045ZM535.328+211.951C535.328+213.442+534.912+214.62+534.075+215.484C533.238+216.349+532.12+216.78+530.719+216.78C529.304+216.78+528.181+216.349+527.344+215.484C526.513+214.62+526.101+213.442+526.101+211.951C526.101+210.456+526.513+209.278+527.344+208.413C528.181+207.546+529.304+207.109+530.719+207.109C532.12+207.109+533.238+207.546+534.075+208.413C534.912+209.278+535.328+210.456+535.328+211.951ZM533.594+211.951C533.594+210.765+533.34+209.884+532.831+209.308C532.323+208.728+531.62+208.44+530.719+208.44C529.804+208.44+529.096+208.728+528.587+209.308C528.089+209.884+527.834+210.765+527.834+211.951C527.834+213.099+528.089+213.971+528.597+214.569C529.106+215.158+529.813+215.455+530.719+215.455C531.616+215.455+532.314+215.162+532.823+214.573C533.335+213.984+533.594+213.108+533.594+211.951ZM524.381+207.364L521.774+216.526L520.215+216.526L517.649+209.464L515.098+216.526L513.549+216.526L510.914+207.364L512.671+207.364L514.506+214.459L517.002+207.364L518.389+207.364L520.95+214.459L522.689+207.364L524.381+207.364ZM509.758+216.446C509.444+216.522+509.098+216.586+508.723+216.636C508.353+216.683+508.021+216.709+507.728+216.709C506.707+216.709+505.931+216.458+505.399+215.955C504.868+215.451+504.604+214.646+504.604+213.535L504.604+208.66L503.467+208.66L503.467+207.364L504.604+207.364L504.604+204.733L506.287+204.733L506.287+207.364L509.758+207.364L509.758+208.66L506.287+208.66L506.287+212.837C506.287+213.32+506.3+213.697+506.324+213.968C506.347+214.235+506.43+214.489+506.573+214.722C506.702+214.942+506.883+215.102+507.109+215.209C507.345+215.306+507.696+215.353+508.169+215.353C508.441+215.353+508.727+215.319+509.028+215.247C509.324+215.171+509.541+215.107+509.67+215.06L509.758+215.06L509.758+216.446ZM502.015+212.108L494.646+212.108C494.646+212.671+494.739+213.162+494.923+213.582C495.108+213.997+495.362+214.34+495.687+214.607C495.995+214.87+496.366+215.069+496.786+215.2C497.217+215.331+497.688+215.395+498.201+215.395C498.881+215.395+499.565+215.273+500.254+215.027C500.942+214.777+501.437+214.531+501.728+214.289L501.82+214.289L501.82+215.971C501.252+216.187+500.675+216.373+500.083+216.518C499.491+216.666+498.871+216.742+498.219+216.742C496.56+216.742+495.265+216.331+494.336+215.509C493.402+214.684+492.94+213.515+492.94+211.998C492.94+210.502+493.384+209.313+494.271+208.431C495.168+207.55+496.342+207.109+497.799+207.109C499.148+207.109+500.188+207.469+500.915+208.193C501.65+208.913+502.015+209.939+502.015+211.269L502.015+212.108ZM500.379+210.926C500.37+210.117+500.147+209.49+499.708+209.045C499.269+208.604+498.604+208.38+497.711+208.38C496.81+208.38+496.089+208.626+495.552+209.113C495.02+209.6+494.72+210.202+494.646+210.926L500.379+210.926ZM490.235+216.526L488.04+216.526L481.72+205.601L481.72+216.526L480.065+216.526L480.065+204.313L482.812+204.313L488.576+214.289L488.576+204.313L490.235+204.313L490.235+216.526ZM470.242+216.526L468.559+216.526L468.559+211.311C468.559+210.888+468.531+210.493+468.48+210.129C468.425+209.757+468.328+209.469+468.184+209.262C468.036+209.028+467.819+208.859+467.538+208.749C467.259+208.635+466.895+208.579+466.446+208.579C465.988+208.579+465.508+208.681+465.004+208.888C464.504+209.096+464.024+209.362+463.566+209.684L463.566+216.526L461.878+216.526L461.878+203.762L463.566+203.762L463.566+208.38C464.088+207.982+464.633+207.673+465.193+207.448C465.753+207.224+466.33+207.109+466.922+207.109C467.999+207.109+468.826+207.41+469.391+208.004C469.959+208.6+470.242+209.46+470.242+210.579L470.242+216.526ZM459.715+215.955C459.151+216.2+458.619+216.391+458.111+216.526C457.612+216.666+457.076+216.734+456.506+216.734C455.786+216.734+455.124+216.636+454.523+216.446C453.918+216.251+453.4+215.955+452.975+215.56C452.536+215.167+452.199+214.667+451.962+214.065C451.722+213.464+451.602+212.76+451.602+211.96C451.602+210.46+452.051+209.282+452.947+208.431C453.848+207.58+455.037+207.151+456.506+207.151C457.08+207.151+457.644+207.224+458.194+207.372C458.749+207.52+459.253+207.702+459.715+207.915L459.715+209.63L459.623+209.63C459.109+209.262+458.577+208.982+458.032+208.782C457.486+208.588+456.955+208.49+456.438+208.49C455.48+208.49+454.726+208.782+454.173+209.375C453.622+209.96+453.349+210.82+453.349+211.96C453.349+213.062+453.618+213.913+454.154+214.51C454.699+215.099+455.458+215.395+456.438+215.395C456.78+215.395+457.122+215.353+457.478+215.273C457.828+215.191+458.143+215.086+458.425+214.955C458.67+214.836+458.902+214.718+459.114+214.591C459.331+214.459+459.498+214.349+459.623+214.256L459.715+214.256L459.715+215.955ZM450.714+209.045L450.626+209.045C450.377+208.99+450.132+208.952+449.891+208.931C449.66+208.906+449.383+208.888+449.059+208.888C448.542+208.888+448.037+208.999+447.557+209.211C447.072+209.418+446.609+209.689+446.16+210.024L446.16+216.526L444.478+216.526L444.478+207.364L446.16+207.364L446.16+208.719C446.827+208.228+447.418+207.88+447.921+207.677C448.435+207.469+448.957+207.364+449.49+207.364C449.781+207.364+449.993+207.372+450.127+207.389C450.256+207.402+450.455+207.422+450.714+207.461L450.714+209.045ZM441.218+216.526L439.545+216.526L439.545+215.551C439.392+215.645+439.189+215.777+438.935+215.946C438.686+216.111+438.441+216.242+438.199+216.34C437.918+216.467+437.599+216.569+437.234+216.649C436.868+216.738+436.443+216.78+435.953+216.78C435.051+216.78+434.289+216.509+433.661+215.962C433.036+215.416+432.722+214.718+432.722+213.871C432.722+213.175+432.883+212.616+433.203+212.189C433.53+211.756+433.998+211.417+434.603+211.171C435.209+210.926+435.939+210.757+436.794+210.671C437.65+210.582+438.565+210.52+439.545+210.473L439.545+210.235C439.545+209.884+439.476+209.596+439.337+209.367C439.208+209.138+439.013+208.956+438.764+208.824C438.524+208.698+438.242+208.613+437.903+208.571C437.571+208.528+437.219+208.502+436.86+208.502C436.416+208.502+435.926+208.558+435.38+208.668C434.839+208.774+434.275+208.926+433.697+209.13L433.61+209.13L433.61+207.562C433.938+207.478+434.409+207.389+435.033+207.291C435.652+207.193+436.263+207.144+436.868+207.144C437.571+207.144+438.181+207.198+438.703+207.308C439.226+207.41+439.679+207.593+440.063+207.846C440.437+208.1+440.724+208.427+440.922+208.824C441.117+209.224+441.218+209.719+441.218+210.308L441.218+216.526ZM439.545+214.273L439.545+211.722C439.032+211.748+438.426+211.791+437.723+211.846C437.035+211.896+436.484+211.977+436.078+212.082C435.597+212.206+435.204+212.404+434.903+212.671C434.607+212.934+434.459+213.298+434.459+213.764C434.459+214.289+434.631+214.684+434.978+214.955C435.325+215.217+435.851+215.349+436.564+215.349C437.155+215.349+437.692+215.242+438.181+215.035C438.671+214.824+439.125+214.569+439.545+214.273ZM430.896+212.108L423.527+212.108C423.527+212.671+423.619+213.162+423.803+213.582C423.989+213.997+424.244+214.34+424.567+214.607C424.877+214.87+425.241+215.069+425.667+215.2C426.097+215.331+426.568+215.395+427.082+215.395C427.761+215.395+428.445+215.273+429.129+215.027C429.823+214.777+430.317+214.531+430.608+214.289L430.697+214.289L430.697+215.971C430.133+216.187+429.55+216.373+428.963+216.518C428.372+216.666+427.747+216.742+427.101+216.742C425.44+216.742+424.145+216.331+423.212+215.509C422.283+214.684+421.816+213.515+421.816+211.998C421.816+210.502+422.26+209.313+423.153+208.431C424.045+207.55+425.224+207.109+426.679+207.109C428.025+207.109+429.065+207.469+429.795+208.193C430.526+208.913+430.896+209.939+430.896+211.269L430.896+212.108ZM429.255+210.926C429.25+210.117+429.027+209.49+428.584+209.045C428.149+208.604+427.484+208.38+426.587+208.38C425.685+208.38+424.969+208.626+424.433+209.113C423.9+209.6+423.601+210.202+423.527+210.926L429.255+210.926ZM420.105+213.887C420.105+214.722+419.726+215.408+418.968+215.946C418.22+216.48+417.189+216.751+415.88+216.751C415.14+216.751+414.461+216.671+413.841+216.513C413.227+216.349+412.708+216.171+412.293+215.98L412.293+214.247L412.381+214.247C412.912+214.616+413.504+214.908+414.151+215.124C414.803+215.34+415.427+215.446+416.023+215.446C416.763+215.446+417.34+215.336+417.762+215.116C418.178+214.9+418.386+214.553+418.386+214.082C418.386+213.722+418.275+213.451+418.048+213.264C417.822+213.078+417.388+212.917+416.74+212.786C416.5+212.739+416.19+212.68+415.802+212.616C415.417+212.549+415.072+212.477+414.752+212.4C413.874+212.189+413.249+211.875+412.88+211.468C412.519+211.049+412.334+210.54+412.334+209.939C412.334+209.562+412.417+209.206+412.584+208.875C412.759+208.541+413.018+208.24+413.365+207.978C413.698+207.724+414.124+207.52+414.636+207.372C415.155+207.219+415.737+207.144+416.375+207.144C416.971+207.144+417.572+207.211+418.182+207.346C418.797+207.478+419.306+207.639+419.712+207.833L419.712+209.482L419.625+209.482C419.195+209.189+418.672+208.948+418.058+208.749C417.442+208.549+416.837+208.448+416.25+208.448C415.635+208.448+415.113+208.558+414.692+208.774C414.267+208.99+414.054+209.308+414.054+209.735C414.054+210.113+414.184+210.397+414.437+210.587C414.692+210.778+415.094+210.935+415.659+211.057C415.968+211.121+416.314+211.189+416.694+211.253C417.082+211.32+417.406+211.38+417.665+211.435C418.446+211.595+419.047+211.879+419.472+212.277C419.893+212.684+420.105+213.218+420.105+213.887ZM410.411+212.108L403.042+212.108C403.042+212.671+403.135+213.162+403.32+213.582C403.504+213.997+403.759+214.34+404.082+214.607C404.392+214.87+404.758+215.069+405.183+215.2C405.612+215.331+406.084+215.395+406.597+215.395C407.277+215.395+407.961+215.273+408.645+215.027C409.339+214.777+409.834+214.531+410.125+214.289L410.212+214.289L410.212+215.971C409.648+216.187+409.066+216.373+408.479+216.518C407.887+216.666+407.268+216.742+406.616+216.742C404.957+216.742+403.662+216.331+402.728+215.509C401.799+214.684+401.332+213.515+401.332+211.998C401.332+210.502+401.775+209.313+402.668+208.431C403.56+207.55+404.739+207.109+406.196+207.109C407.545+207.109+408.58+207.469+409.311+208.193C410.042+208.913+410.411+209.939+410.411+211.269L410.411+212.108ZM408.774+210.926C408.765+210.117+408.544+209.49+408.1+209.045C407.666+208.604+406.999+208.38+406.102+208.38C405.202+208.38+404.484+208.626+403.948+209.113C403.417+209.6+403.116+210.202+403.042+210.926L408.774+210.926ZM400.883+216.526L398.586+216.526L394.124+211.671L391.628+211.671L391.628+216.526L389.853+216.526L389.853+204.313L393.588+204.313C394.393+204.313+395.067+204.36+395.604+204.462C396.14+204.555+396.626+204.724+397.051+204.97C397.536+205.249+397.911+205.601+398.179+206.029C398.456+206.448+398.595+206.982+398.595+207.635C398.595+208.515+398.35+209.253+397.869+209.85C397.384+210.439+396.718+210.888+395.872+211.189L400.883+216.526ZM396.741+207.749C396.741+207.402+396.672+207.093+396.533+206.821C396.404+206.55+396.182+206.322+395.872+206.135C395.613+205.973+395.308+205.864+394.956+205.804C394.606+205.741+394.189+205.707+393.714+205.707L391.628+205.707L391.628+210.316L393.418+210.316C393.981+210.316+394.466+210.273+394.888+210.184C395.303+210.091+395.659+209.922+395.95+209.677C396.219+209.448+396.418+209.185+396.542+208.888C396.677+208.588+396.741+208.211+396.741+207.749ZM380.723+212.108L373.354+212.108C373.354+212.671+373.447+213.162+373.631+213.582C373.816+213.997+374.07+214.34+374.393+214.607C374.703+214.87+375.069+215.069+375.494+215.2C375.924+215.331+376.396+215.395+376.908+215.395C377.589+215.395+378.273+215.273+378.962+215.027C379.65+214.777+380.145+214.531+380.436+214.289L380.528+214.289L380.528+215.971C379.96+216.187+379.382+216.373+378.79+216.518C378.198+216.666+377.579+216.742+376.927+216.742C375.268+216.742+373.973+216.331+373.044+215.509C372.11+214.684+371.643+213.515+371.643+211.998C371.643+210.502+372.091+209.313+372.979+208.431C373.876+207.55+375.05+207.109+376.507+207.109C377.856+207.109+378.892+207.469+379.622+208.193C380.357+208.913+380.723+209.939+380.723+211.269L380.723+212.108ZM379.086+210.926C379.076+210.117+378.855+209.49+378.411+209.045C377.977+208.604+377.311+208.38+376.418+208.38C375.518+208.38+374.796+208.626+374.26+209.113C373.728+209.6+373.428+210.202+373.354+210.926L379.086+210.926ZM370.312+216.446C369.993+216.522+369.651+216.586+369.271+216.636C368.902+216.683+368.573+216.709+368.277+216.709C367.256+216.709+366.484+216.458+365.953+215.955C365.42+215.451+365.153+214.646+365.153+213.535L365.153+208.66L364.015+208.66L364.015+207.364L365.153+207.364L365.153+204.733L366.836+204.733L366.836+207.364L370.312+207.364L370.312+208.66L366.836+208.66L366.836+212.837C366.836+213.32+366.849+213.697+366.872+213.968C366.895+214.235+366.979+214.489+367.122+214.722C367.256+214.942+367.437+215.102+367.663+215.209C367.894+215.306+368.245+215.353+368.717+215.353C368.994+215.353+369.276+215.319+369.577+215.247C369.877+215.171+370.09+215.107+370.219+215.06L370.312+215.06L370.312+216.446ZM361.806+216.526L360.123+216.526L360.123+215.509C359.554+215.92+359.013+216.234+358.496+216.455C357.973+216.675+357.4+216.78+356.776+216.78C355.722+216.78+354.909+216.488+354.32+215.904C353.738+215.315+353.442+214.451+353.442+213.311L353.442+207.364L355.125+207.364L355.125+212.582C355.125+213.049+355.154+213.447+355.2+213.782C355.246+214.107+355.348+214.391+355.504+214.624C355.666+214.866+355.874+215.04+356.129+215.149C356.388+215.26+356.757+215.315+357.247+215.315C357.686+215.315+358.158+215.209+358.671+215.002C359.194+214.793+359.674+214.527+360.123+214.205L360.123+207.364L361.806+207.364L361.806+216.526ZM351.349+215.955C350.789+216.2+350.253+216.391+349.744+216.526C349.245+216.666+348.708+216.734+348.145+216.734C347.423+216.734+346.758+216.636+346.157+216.446C345.556+216.251+345.038+215.955+344.608+215.56C344.173+215.167+343.836+214.667+343.596+214.065C343.356+213.464+343.24+212.76+343.24+211.96C343.24+210.46+343.683+209.282+344.58+208.431C345.482+207.58+346.67+207.151+348.145+207.151C348.718+207.151+349.278+207.224+349.828+207.372C350.382+207.52+350.891+207.702+351.349+207.915L351.349+209.63L351.261+209.63C350.748+209.262+350.216+208.982+349.666+208.782C349.125+208.588+348.594+208.49+348.071+208.49C347.119+208.49+346.36+208.782+345.805+209.375C345.26+209.96+344.983+210.82+344.983+211.96C344.983+213.062+345.25+213.913+345.791+214.51C346.332+215.099+347.095+215.395+348.071+215.395C348.413+215.395+348.759+215.353+349.111+215.273C349.462+215.191+349.782+215.086+350.059+214.955C350.304+214.836+350.535+214.718+350.748+214.591C350.965+214.459+351.136+214.349+351.261+214.256L351.349+214.256L351.349+215.955ZM342.066+216.526L340.174+216.526L338.871+213.124L333.102+213.124L331.798+216.526L329.995+216.526L334.849+204.313L337.211+204.313L342.066+216.526ZM338.321+211.727L335.986+205.733L333.643+211.727L338.321+211.727ZM317.088+206.758C317.088+206.237+316.917+205.83+316.575+205.533C316.242+205.233+315.811+205.084+315.285+205.084C314.739+205.084+314.291+205.253+313.944+205.593C313.597+205.927+313.427+206.333+313.427+206.821C313.427+207.232+313.541+207.597+313.773+207.915C314.014+208.231+314.523+208.604+315.304+209.037C315.891+208.846+316.33+208.566+316.63+208.202C316.936+207.829+317.088+207.346+317.088+206.758ZM318.821+213.942L314.545+210.122C314.36+210.202+314.176+210.311+313.99+210.447C313.805+210.579+313.621+210.761+313.436+210.989C313.265+211.206+313.131+211.46+313.024+211.76C312.913+212.062+312.862+212.4+312.862+212.777C312.862+213.578+313.117+214.222+313.621+214.713C314.133+215.2+314.86+215.446+315.798+215.446C316.352+215.446+316.903+215.324+317.443+215.078C317.994+214.824+318.452+214.446+318.821+213.942ZM321.517+209.071L321.517+209.858C321.517+210.384+321.442+210.973+321.294+211.629C321.146+212.286+320.892+212.913+320.532+213.511L323.916+216.526L321.716+216.526L319.662+214.693C318.978+215.467+318.275+216.009+317.559+216.323C316.843+216.628+316.107+216.78+315.35+216.78C314.111+216.78+313.075+216.451+312.253+215.789C311.434+215.124+311.027+214.251+311.027+213.171C311.027+212.671+311.101+212.235+311.259+211.866C311.416+211.502+311.596+211.184+311.804+210.918C312.011+210.659+312.275+210.418+312.585+210.193C312.895+209.964+313.209+209.766+313.524+209.596C312.867+209.202+312.391+208.804+312.1+208.406C311.814+208.007+311.669+207.504+311.669+206.897C311.669+206.529+311.748+206.182+311.901+205.855C312.062+205.52+312.304+205.215+312.617+204.944C312.918+204.682+313.306+204.47+313.783+204.304C314.268+204.14+314.799+204.059+315.377+204.059C316.408+204.059+317.245+204.3+317.882+204.779C318.52+205.253+318.84+205.86+318.84+206.593C318.84+206.833+318.808+207.109+318.733+207.415C318.665+207.715+318.539+207.986+318.369+208.228C318.175+208.495+317.906+208.749+317.55+208.999C317.198+209.244+316.745+209.451+316.182+209.63L319.506+212.6C319.589+212.379+319.649+212.138+319.691+211.875C319.732+211.613+319.759+211.342+319.764+211.057C319.774+210.748+319.778+210.409+319.774+210.033L319.774+209.071L321.517+209.071ZM303.001+207.364L297.168+219.907L295.369+219.907L297.227+216.086L293.247+207.364L295.073+207.364L298.143+214.158L301.24+207.364L303.001+207.364ZM292.188+215.955C291.629+216.2+291.093+216.391+290.584+216.526C290.085+216.666+289.549+216.734+288.984+216.734C288.264+216.734+287.598+216.636+286.997+216.446C286.391+216.251+285.878+215.955+285.448+215.56C285.014+215.167+284.676+214.667+284.436+214.065C284.196+213.464+284.075+212.76+284.075+211.96C284.075+210.46+284.524+209.282+285.421+208.431C286.321+207.58+287.51+207.151+288.984+207.151C289.558+207.151+290.117+207.224+290.667+207.372C291.222+207.52+291.731+207.702+292.188+207.915L292.188+209.63L292.1+209.63C291.588+209.262+291.055+208.982+290.506+208.782C289.961+208.588+289.433+208.49+288.911+208.49C287.958+208.49+287.201+208.782+286.646+209.375C286.1+209.96+285.823+210.82+285.823+211.96C285.823+213.062+286.091+213.913+286.627+214.51C287.172+215.099+287.936+215.395+288.911+215.395C289.253+215.395+289.6+215.353+289.951+215.273C290.303+215.191+290.621+215.086+290.899+214.955C291.144+214.836+291.375+214.718+291.588+214.591C291.805+214.459+291.976+214.349+292.1+214.256L292.188+214.256L292.188+215.955ZM281.551+216.526L279.868+216.526L279.868+211.311C279.868+210.888+279.841+210.493+279.79+210.129C279.734+209.757+279.637+209.469+279.494+209.262C279.346+209.028+279.128+208.859+278.851+208.749C278.57+208.635+278.204+208.579+277.756+208.579C277.298+208.579+276.817+208.681+276.313+208.888C275.815+209.096+275.333+209.362+274.876+209.684L274.876+216.526L273.193+216.526L273.193+207.364L274.876+207.364L274.876+208.38C275.398+207.982+275.944+207.668+276.503+207.448C277.062+207.224+277.641+207.109+278.232+207.109C279.314+207.109+280.137+207.41+280.7+208.004C281.269+208.6+281.551+209.46+281.551+210.579L281.551+216.526ZM270.64+212.108L263.272+212.108C263.272+212.671+263.364+213.162+263.549+213.582C263.735+213.997+263.988+214.34+264.308+214.607C264.622+214.87+264.987+215.069+265.412+215.2C265.843+215.331+266.314+215.395+266.827+215.395C267.507+215.395+268.191+215.273+268.875+215.027C269.568+214.777+270.058+214.527+270.354+214.289L270.442+214.289L270.442+215.971C269.874+216.187+269.296+216.373+268.704+216.518C268.117+216.666+267.492+216.742+266.845+216.742C265.186+216.742+263.886+216.331+262.957+215.509C262.028+214.684+261.562+213.515+261.562+211.998C261.562+210.502+262.006+209.313+262.893+208.431C263.789+207.55+264.965+207.109+266.425+207.109C267.771+207.109+268.811+207.469+269.536+208.193C270.271+208.913+270.64+209.939+270.64+211.269L270.64+212.108ZM269+210.926C268.995+210.117+268.773+209.49+268.329+209.045C267.895+208.604+267.23+208.38+266.333+208.38C265.431+208.38+264.715+208.626+264.174+209.113C263.646+209.6+263.341+210.202+263.272+210.926L269+210.926ZM258.954+215.484C258.954+217.039+258.57+218.178+257.803+218.907C257.03+219.636+255.847+220+254.248+220C253.717+220+253.198+219.962+252.69+219.889C252.187+219.826+251.692+219.729+251.202+219.606L251.202+218.031L251.294+218.031C251.566+218.127+252.001+218.246+252.597+218.391C253.194+218.538+253.795+218.611+254.391+218.611C254.964+218.611+255.436+218.547+255.815+218.424C256.19+218.297+256.481+218.124+256.688+217.899C256.901+217.682+257.049+217.429+257.137+217.128C257.229+216.827+257.272+216.488+257.272+216.12L257.272+215.28C256.768+215.653+256.278+215.933+255.815+216.12C255.352+216.298+254.765+216.387+254.049+216.387C252.856+216.387+251.908+215.997+251.202+215.209C250.504+214.413+250.157+213.298+250.157+211.858C250.157+211.075+250.276+210.393+250.513+209.824C250.758+209.253+251.091+208.757+251.506+208.342C251.895+207.953+252.366+207.651+252.921+207.44C253.477+207.219+254.03+207.109+254.576+207.109C255.158+207.109+255.64+207.164+256.028+207.275C256.421+207.376+256.836+207.542+257.272+207.757L257.382+207.364L258.954+207.364L258.954+215.484ZM257.272+214.01L257.272+209.011C256.823+208.829+256.407+208.698+256.019+208.617C255.64+208.537+255.255+208.495+254.872+208.495C253.948+208.495+253.222+208.782+252.69+209.35C252.158+209.918+251.891+210.744+251.891+211.828C251.891+212.853+252.089+213.633+252.482+214.167C252.875+214.696+253.531+214.959+254.442+214.959C254.932+214.959+255.422+214.874+255.912+214.704C256.407+214.531+256.86+214.298+257.272+214.01ZM249.241+209.045L249.153+209.045C248.904+208.99+248.659+208.952+248.418+208.931C248.188+208.906+247.909+208.888+247.586+208.888C247.068+208.888+246.565+208.999+246.083+209.211C245.598+209.418+245.132+209.689+244.683+210.024L244.683+216.526L243+216.526L243+207.364L244.683+207.364L244.683+208.719C245.353+208.228+245.94+207.88+246.449+207.677C246.963+207.469+247.485+207.364+248.016+207.364C248.307+207.364+248.52+207.372+248.649+207.389C248.784+207.402+248.978+207.422+249.241+207.461L249.241+209.045ZM240.449+212.108L233.084+212.108C233.084+212.671+233.176+213.162+233.361+213.582C233.547+213.997+233.801+214.34+234.12+214.607C234.43+214.87+234.799+215.069+235.22+215.2C235.65+215.331+236.121+215.395+236.634+215.395C237.319+215.395+237.998+215.273+238.687+215.027C239.38+214.777+239.87+214.527+240.162+214.289L240.255+214.289L240.255+215.971C239.685+216.187+239.108+216.373+238.516+216.518C237.924+216.666+237.304+216.742+236.653+216.742C234.993+216.742+233.699+216.331+232.769+215.509C231.835+214.684+231.374+213.515+231.374+211.998C231.374+210.502+231.818+209.313+232.705+208.431C233.602+207.55+234.776+207.109+236.232+207.109C237.582+207.109+238.623+207.469+239.348+208.193C240.083+208.913+240.449+209.939+240.449+211.269L240.449+212.108ZM238.812+210.926C238.807+210.117+238.581+209.49+238.142+209.045C237.707+208.604+237.042+208.38+236.145+208.38C235.243+208.38+234.522+208.626+233.986+209.113C233.454+209.6+233.154+210.202+233.084+210.926L238.812+210.926ZM228.84+216.526L227.157+216.526L227.157+211.311C227.157+210.918+227.135+210.536+227.093+210.172C227.055+209.804+226.977+209.511+226.852+209.291C226.713+209.058+226.515+208.88+226.26+208.757C226.002+208.638+225.632+208.579+225.151+208.579C224.68+208.579+224.208+208.689+223.737+208.906C223.265+209.122+222.794+209.393+222.322+209.727C222.34+209.855+222.355+209.998+222.363+210.172C222.377+210.333+222.382+210.498+222.382+210.664L222.382+216.526L220.699+216.526L220.699+211.311C220.699+210.905+220.681+210.524+220.639+210.164C220.602+209.795+220.524+209.502+220.394+209.282C220.26+209.049+220.061+208.875+219.807+208.757C219.549+208.638+219.178+208.579+218.693+208.579C218.235+208.579+217.773+208.681+217.306+208.888C216.848+209.096+216.386+209.362+215.928+209.684L215.928+216.526L214.246+216.526L214.246+207.364L215.928+207.364L215.928+208.38C216.455+207.982+216.978+207.668+217.495+207.448C218.023+207.224+218.577+207.109+219.169+207.109C219.848+207.109+220.427+207.24+220.898+207.504C221.375+207.766+221.73+208.13+221.962+208.596C222.646+208.071+223.265+207.693+223.825+207.461C224.388+207.228+224.984+207.109+225.622+207.109C226.723+207.109+227.532+207.415+228.05+208.029C228.576+208.635+228.84+209.486+228.84+210.579L228.84+216.526ZM211.56+216.526L202.776+216.526L202.776+204.313L211.56+204.313L211.56+205.758L204.552+205.758L204.552+209.104L211.56+209.104L211.56+210.549L204.552+210.549L204.552+215.086L211.56+215.086L211.56+216.526ZM194.594+209.045L194.505+209.045C194.255+208.99+194.01+208.952+193.77+208.931C193.539+208.906+193.262+208.888+192.938+208.888C192.421+208.888+191.917+208.999+191.436+209.211C190.951+209.418+190.484+209.689+190.035+210.024L190.035+216.526L188.352+216.526L188.352+207.364L190.035+207.364L190.035+208.719C190.705+208.228+191.293+207.88+191.801+207.677C192.315+207.469+192.836+207.364+193.368+207.364C193.66+207.364+193.872+207.372+194.002+207.389C194.136+207.402+194.33+207.422+194.594+207.461L194.594+209.045ZM185.801+212.108L178.436+212.108C178.436+212.671+178.528+213.162+178.714+213.582C178.899+213.997+179.153+214.34+179.471+214.607C179.782+214.87+180.152+215.069+180.572+215.2C181.002+215.331+181.474+215.395+181.986+215.395C182.67+215.395+183.351+215.273+184.04+215.027C184.733+214.777+185.223+214.527+185.514+214.289L185.607+214.289L185.607+215.971C185.037+216.187+184.46+216.373+183.868+216.518C183.276+216.666+182.657+216.742+182.005+216.742C180.346+216.742+179.051+216.331+178.122+215.509C177.189+214.684+176.726+213.515+176.726+211.998C176.726+210.502+177.17+209.313+178.057+208.431C178.954+207.55+180.128+207.109+181.584+207.109C182.934+207.109+183.975+207.469+184.7+208.193C185.435+208.913+185.801+209.939+185.801+211.269L185.801+212.108ZM184.164+210.926C184.159+210.117+183.933+209.49+183.494+209.045C183.06+208.604+182.393+208.38+181.496+208.38C180.596+208.38+179.874+208.626+179.338+209.113C178.806+209.6+178.506+210.202+178.436+210.926L184.164+210.926ZM175.39+216.446C175.075+216.522+174.728+216.586+174.349+216.636C173.98+216.683+173.651+216.709+173.36+216.709C172.339+216.709+171.562+216.458+171.03+215.955C170.498+215.451+170.236+214.646+170.236+213.535L170.236+208.66L169.098+208.66L169.098+207.364L170.236+207.364L170.236+204.733L171.917+204.733L171.917+207.364L175.39+207.364L175.39+208.66L171.917+208.66L171.917+212.837C171.917+213.32+171.927+213.697+171.95+213.968C171.978+214.235+172.062+214.489+172.205+214.722C172.334+214.942+172.514+215.102+172.741+215.209C172.972+215.306+173.323+215.353+173.794+215.353C174.072+215.353+174.359+215.319+174.655+215.247C174.955+215.171+175.168+215.107+175.302+215.06L175.39+215.06L175.39+216.446ZM167.78+213.887C167.78+214.722+167.401+215.408+166.643+215.946C165.89+216.48+164.864+216.751+163.555+216.751C162.815+216.751+162.136+216.671+161.512+216.513C160.897+216.349+160.383+216.171+159.963+215.98L159.963+214.247L160.055+214.247C160.587+214.616+161.174+214.908+161.826+215.124C162.478+215.34+163.102+215.446+163.698+215.446C164.438+215.446+165.015+215.336+165.437+215.116C165.852+214.9+166.06+214.553+166.06+214.082C166.06+213.722+165.95+213.451+165.723+213.264C165.497+213.078+165.058+212.917+164.415+212.786C164.175+212.739+163.86+212.68+163.477+212.616C163.092+212.549+162.742+212.477+162.427+212.4C161.549+212.189+160.924+211.875+160.555+211.464C160.189+211.049+160.009+210.54+160.009+209.939C160.009+209.562+160.092+209.206+160.259+208.875C160.434+208.541+160.693+208.24+161.04+207.978C161.373+207.724+161.799+207.52+162.311+207.372C162.829+207.219+163.407+207.144+164.045+207.144C164.646+207.144+165.247+207.211+165.857+207.346C166.472+207.478+166.981+207.639+167.387+207.833L167.387+209.482L167.295+209.482C166.865+209.189+166.347+208.948+165.732+208.749C165.117+208.549+164.512+208.448+163.921+208.448C163.305+208.448+162.788+208.558+162.362+208.774C161.942+208.99+161.729+209.308+161.729+209.735C161.729+210.113+161.858+210.397+162.112+210.587C162.362+210.778+162.769+210.935+163.334+211.057C163.642+211.121+163.989+211.189+164.369+211.253C164.757+211.32+165.08+211.38+165.335+211.435C166.116+211.595+166.722+211.879+167.147+212.277C167.568+212.684+167.78+213.218+167.78+213.887ZM157.467+205.83L155.566+205.83L155.566+204.229L157.467+204.229L157.467+205.83ZM157.361+216.526L155.678+216.526L155.678+207.364L157.361+207.364L157.361+216.526ZM154.017+216.526L145.585+216.526L145.585+204.313L147.36+204.313L147.36+215.086L154.017+215.086L154.017+216.526ZM411.738+63.6624C391.254+63.6624+384.254+81.7005+376.118+103.381C377.621+106.444+379.895+111.129+380.56+112.341C383.21+117.17+386.039+121.961+389.085+126.651C392.137+131.34+395.41+135.928+398.955+140.351C400.726+142.562+402.566+144.731+404.48+146.853C406.398+148.976+408.386+151.047+410.457+153.063C412.524+155.08+414.674+157.041+416.911+158.934C419.149+160.832+421.474+162.663+423.887+164.425C426.305+166.183+428.815+167.869+431.423+169.479C434.03+171.085+436.739+172.614+439.55+174.054C442.36+175.494+445.278+176.846+448.306+178.099C451.338+179.357+454.477+180.519+457.736+181.577C460.991+182.637+464.366+183.594+467.865+184.437C471.629+185.339+474.693+186.195+478.609+186.724C482.094+187.195+533.655+187.792+554.994+187.775C501.432+186.826+488.821+169.746+470.838+149.107C441.501+115.433+445.389+63.6624+411.738+63.6624ZM413.74+86.2032C415.121+86.2032+416.343+86.4613+417.401+86.9786C418.478+87.4785+419.38+88.2235+420.097+89.2234C420.832+90.219+421.368+91.4813+421.71+92.9941C422.071+94.494+422.222+96.2302+422.168+98.2039L415.57+98.2039C415.608+97.1119+415.552+96.1792+415.409+95.4125C415.284+94.6458+415.072+94.0103+414.766+93.5147C414.48+93.0147+414.119+92.6504+413.689+92.4183C413.259+92.1895+412.764+92.0745+412.205+92.0745C411.238+92.0745+410.231+92.5072+409.191+93.3704C408.169+94.2142+407.036+95.6164+405.798+97.5728L405.798+116.081L399.066+116.081L399.066+86.8344L405.016+86.8344L405.261+91.0963C405.709+90.3458+406.209+89.6724+406.768+89.0792C407.341+88.4871+407.971+87.9741+408.65+87.5544C409.352+87.1141+410.125+86.7747+410.966+86.5459C411.812+86.3181+412.737+86.2032+413.74+86.2032ZM478.248+188.076L478.11+187.461C474.231+187.504+479.557+187.97+467.786+186.539C464.204+186.102+460.362+184.899+457.103+183.839C453.848+182.781+450.705+181.619+447.677+180.361C444.649+179.108+441.732+177.752+438.921+176.316C436.106+174.876+432.861+173.347+430.253+171.741C427.646+170.132+425.135+168.445+422.722+166.683C420.304+164.925+417.98+163.094+415.742+161.197C413.504+159.303+411.354+157.342+409.288+155.325C407.217+153.309+405.229+151.238+403.31+149.116C401.397+146.993+399.556+144.824+397.786+142.613C394.24+138.191+390.967+133.602+387.916+128.913C384.869+124.224+382.045+119.433+379.391+114.599C378.726+113.391+376.451+108.706+374.948+105.643C369.304+120.686+363.118+137.427+351.464+151.365C327.915+179.536+308.3+188.228+232.853+188.228L479.395+188.119L478.248+188.076Z" opacity="1" fill="#d84c4c"/>
</g>
</svg>
